<svg>
    
	<g>
		<g>
			<g>
				<path style="fill:#00853E;" d="M8.3,393.57c0-2.99-0.15-5.59-0.46-7.8l0.08-0.11c1.24,0.08,2.31,0.11,3.19,0.11l3.23-0.11
				l0.04,0.11c-0.32,2.05-0.48,4.65-0.48,7.8v9.53c0,2.95,0.16,5.55,0.48,7.8l-0.1,0.11c-1.24-0.08-2.3-0.11-3.18-0.11l-3.23,0.11
				l-0.04-0.11c0.32-2.1,0.47-4.7,0.46-7.8v-9.53H8.3z"></path>
				<path style="fill:#00853E;" d="M25.41,385.78c0.92,0,2.11-0.02,3.59-0.06s2.39-0.06,2.75-0.06c1.67,0,3.12,0.19,4.35,0.56
				s2.16,0.88,2.79,1.5c0.63,0.63,1.09,1.26,1.39,1.91s0.45,1.33,0.45,2.05c0,1.03-0.38,2.04-1.13,3.02
				c-0.75,0.98-1.64,1.74-2.68,2.27c1.86,0.54,3.38,1.38,4.54,2.51c1.17,1.13,1.75,2.57,1.75,4.29c0,1.91-0.88,3.59-2.64,5.05
				c-1.76,1.45-4.42,2.18-7.98,2.18c-1.22,0-2.5-0.02-3.84-0.06s-2.46-0.06-3.35-0.06l-3.35,0.11l-0.04-0.11
				c0.32-2.1,0.48-4.7,0.48-7.8v-9.53c0-2.99-0.16-5.59-0.48-7.8l0.08-0.11C23.4,385.74,24.51,385.78,25.41,385.78z M28.1,389.42v7
				h3.03c1.56,0,2.61-0.33,3.16-0.98c0.55-0.65,0.82-1.74,0.82-3.27c0-1.68-0.29-2.87-0.87-3.55c-0.58-0.68-1.45-1.03-2.62-1.03
				c-1.5,0-2.47,0.13-2.89,0.39S28.1,388.73,28.1,389.42z M28.1,398.37v8.84c0,0.68,0.23,1.16,0.69,1.44
				c0.46,0.28,1.36,0.42,2.68,0.42c1.27,0,2.28-0.1,3.05-0.3c0.77-0.2,1.32-0.53,1.65-0.99s0.55-0.91,0.65-1.36
				c0.1-0.44,0.14-1.07,0.14-1.89c0-4.13-1.75-6.18-5.26-6.17L28.1,398.37L28.1,398.37z"></path>
				<path style="fill:#00853E;" d="M48.23,393.57c0.08-2.8-0.06-5.4-0.4-7.8l0.08-0.11c0.84,0.08,1.74,0.11,2.7,0.11l1.84-0.08
				l14.02,17.14c0.14,0.31,0.26,0.52,0.35,0.64s0.17,0.12,0.23,0.02s0.1-0.34,0.1-0.7l-0.27-9.22c-0.1-3.45-0.27-6.05-0.51-7.8
				l0.08-0.11c0.7,0.08,1.36,0.11,2,0.11l1.9-0.11l0.08,0.11c-0.25,1.71-0.38,4.31-0.38,7.8v17.44c-0.86-0.08-1.49-0.11-1.88-0.11
				c-0.29,0-0.63,0.01-1.02,0.04s-0.77,0.04-1.15,0.04l-14.86-17.79l-0.13-0.33c0,0.08,0,0.16,0,0.25s0,0.19,0,0.31
				s-0.01,0.25-0.02,0.39l-0.23,9.3c-0.08,3.45,0,6.05,0.23,7.8l-0.08,0.11c-0.65-0.08-1.28-0.11-1.9-0.11l-1.56,0.11l-0.04-0.11
				c0.29-1.84,0.5-4.44,0.63-7.8L48.23,393.57z"></path>
				<path style="fill:#00853E;" d="M82.24,385.78c0.92,0,2.11-0.02,3.59-0.06c1.48-0.04,2.39-0.06,2.75-0.06
				c1.67,0,3.12,0.19,4.35,0.56s2.16,0.88,2.79,1.5c0.63,0.63,1.09,1.26,1.39,1.91s0.45,1.33,0.45,2.05c0,1.03-0.38,2.04-1.13,3.02
				c-0.75,0.98-1.64,1.74-2.68,2.27c1.86,0.54,3.38,1.38,4.54,2.51c1.17,1.13,1.75,2.57,1.75,4.29c0,1.91-0.88,3.59-2.64,5.05
				c-1.76,1.45-4.42,2.18-7.98,2.18c-1.22,0-2.5-0.02-3.84-0.06s-2.46-0.06-3.35-0.06l-3.35,0.11l-0.04-0.11
				c0.32-2.1,0.48-4.7,0.48-7.8v-9.53c0-2.99-0.16-5.59-0.48-7.8l0.08-0.11C80.24,385.74,81.34,385.78,82.24,385.78z M84.94,389.42
				v7h3.03c1.56,0,2.61-0.33,3.16-0.98c0.55-0.65,0.82-1.74,0.82-3.27c0-1.68-0.29-2.87-0.87-3.55s-1.45-1.03-2.62-1.03
				c-1.5,0-2.47,0.13-2.89,0.39S84.94,388.73,84.94,389.42z M84.94,398.37v8.84c0,0.68,0.23,1.16,0.69,1.44s1.36,0.42,2.68,0.42
				c1.27,0,2.28-0.1,3.05-0.3c0.77-0.2,1.32-0.53,1.65-0.99s0.55-0.91,0.65-1.36c0.1-0.44,0.14-1.07,0.14-1.89
				c0-4.13-1.75-6.18-5.26-6.17L84.94,398.37L84.94,398.37z"></path>
				<path style="fill:#00853E;" d="M109.01,402.15c-1.54,3.84-2.58,6.8-3.12,8.86c-0.32-0.08-0.91-0.11-1.77-0.11
				c-1.15,0-1.89,0.04-2.21,0.11c4.33-9.69,8.08-18.27,11.27-25.75h3.72c5.24,13.5,8.76,22.08,10.57,25.75
				c-0.44-0.08-1.61-0.11-3.51-0.11c-1.64,0-2.68,0.04-3.12,0.11c-0.61-2.3-1.57-5.26-2.85-8.88c-1.56-0.04-2.84-0.06-3.84-0.06
				c-0.65,0-1.48,0.01-2.47,0.03C110.67,402.12,109.79,402.14,109.01,402.15z M117.19,400.19c-1.25-3.23-2.4-6.08-3.46-8.54
				l-0.26,0.01l-3.61,8.5c1.1,0.05,2.46,0.08,4.08,0.08C114.75,400.23,115.83,400.22,117.19,400.19z"></path>
				<path style="fill:#00853E;" d="M134.76,385.78c0.99,0,2.26-0.02,3.82-0.06c1.56-0.04,2.83-0.06,3.82-0.06
				c3.77,0,7.02,1.31,9.77,3.92c2.75,2.61,4.13,5.72,4.13,9.32c0,1.84-0.29,3.48-0.86,4.92c-0.57,1.45-1.3,2.6-2.2,3.47
				c-0.89,0.87-1.94,1.59-3.14,2.16s-2.37,0.97-3.51,1.19s-2.31,0.33-3.5,0.33c-1.41,0-2.9-0.01-4.47-0.04s-2.87-0.04-3.88-0.04
				l-3.31,0.11l-0.04-0.11c0.32-2.1,0.48-4.7,0.48-7.8v-9.53c0-2.99-0.16-5.59-0.48-7.8l0.08-0.11
				C132.78,385.74,133.87,385.78,134.76,385.78z M137.49,407.05c0,0.7,0.29,1.21,0.86,1.52s1.75,0.46,3.54,0.46
				c1.48,0,2.68-0.11,3.58-0.32c0.91-0.21,1.72-0.64,2.43-1.29c0.72-0.65,1.22-1.58,1.52-2.8s0.45-2.81,0.45-4.79
				c0-1.45-0.04-2.66-0.11-3.64s-0.29-2.06-0.63-3.24c-0.34-1.18-0.82-2.12-1.43-2.84c-0.61-0.71-1.49-1.31-2.64-1.8
				s-2.54-0.73-4.15-0.73c-1.01,0-1.84,0.17-2.47,0.5s-0.95,0.83-0.95,1.48V407.05z"></path>
				<path style="fill:#00853E;" d="M161.63,393.57c0-2.99-0.15-5.59-0.46-7.8l0.08-0.11c1.24,0.08,2.31,0.11,3.19,0.11l3.23-0.11
				l0.04,0.11c-0.32,2.05-0.48,4.65-0.48,7.8v9.53c0,2.95,0.16,5.55,0.48,7.8l-0.1,0.11c-1.24-0.08-2.3-0.11-3.18-0.11l-3.23,0.11
				l-0.04-0.11c0.32-2.1,0.47-4.7,0.46-7.8L161.63,393.57L161.63,393.57z"></path>
				<path style="fill:#00853E;" d="M180.38,409.34c2.42,0,3.63-1.34,3.64-4.02c0-0.75-0.33-1.5-0.98-2.24
				c-0.66-0.74-1.47-1.36-2.43-1.86c-2.68-1.38-4.54-2.55-5.57-3.49c-0.53-0.48-0.98-0.97-1.34-1.47c-0.77-1.04-1.17-2.45-1.18-4.22
				c0-2.01,0.81-3.64,2.44-4.9s3.57-1.88,5.82-1.88c1.38,0,2.71,0.14,4.01,0.43c1.29,0.29,2.24,0.59,2.85,0.89l0.91,0.46l0.09,0.12
				c-0.28,0.92-0.53,2.47-0.75,4.67l-1.14,0.06c-0.61-1.17-1.43-2.24-2.45-3.22s-2.06-1.47-3.1-1.47c-1.04,0-1.9,0.38-2.56,1.13
				c-0.66,0.76-0.99,1.64-0.99,2.64c0,0.67,0.1,1.27,0.3,1.8s0.51,0.98,0.93,1.35c0.43,0.37,0.83,0.67,1.2,0.88
				c0.38,0.21,0.89,0.47,1.55,0.77c1.07,0.5,1.93,0.93,2.58,1.32c0.65,0.38,1.41,0.9,2.28,1.56s1.53,1.41,1.98,2.26
				s0.68,1.78,0.68,2.79c0,2.06-0.85,3.84-2.54,5.33s-3.89,2.23-6.58,2.23c-1.38,0-2.75-0.14-4.12-0.41s-2.39-0.55-3.06-0.83
				l-1.04-0.44l-0.08-0.11c0.29-1.07,0.55-2.65,0.78-4.76l0.99-0.04c0.71,1.12,1.76,2.17,3.14,3.17S179.28,409.34,180.38,409.34z"></path>
				<path style="fill:#00853E;" d="M216.52,409.34c2.42,0,3.63-1.34,3.64-4.02c0-0.75-0.33-1.5-0.98-2.24
				c-0.66-0.74-1.47-1.36-2.43-1.86c-2.68-1.38-4.54-2.55-5.57-3.49c-0.53-0.48-0.98-0.97-1.34-1.47c-0.77-1.04-1.17-2.45-1.18-4.22
				c0-2.01,0.81-3.64,2.44-4.9s3.57-1.88,5.82-1.88c1.38,0,2.71,0.14,4.01,0.43c1.29,0.29,2.24,0.59,2.85,0.89l0.91,0.46l0.09,0.12
				c-0.28,0.92-0.53,2.47-0.75,4.67l-1.14,0.06c-0.61-1.17-1.43-2.24-2.45-3.22s-2.06-1.47-3.1-1.47c-1.04,0-1.9,0.38-2.56,1.13
				c-0.66,0.76-0.99,1.64-0.99,2.64c0,0.67,0.1,1.27,0.3,1.8s0.51,0.98,0.93,1.35c0.43,0.37,0.83,0.67,1.2,0.88
				c0.38,0.21,0.89,0.47,1.55,0.77c1.07,0.5,1.93,0.93,2.58,1.32c0.65,0.38,1.41,0.9,2.28,1.56s1.53,1.41,1.98,2.26
				s0.68,1.78,0.68,2.79c0,2.06-0.85,3.84-2.54,5.33s-3.89,2.23-6.58,2.23c-1.38,0-2.75-0.14-4.12-0.41s-2.39-0.55-3.06-0.83
				l-1.04-0.44l-0.08-0.11c0.29-1.07,0.55-2.65,0.78-4.76l0.99-0.04c0.71,1.12,1.76,2.17,3.14,3.17S215.42,409.34,216.52,409.34z"></path>
				<path style="fill:#00853E;" d="M243.27,385.26c1.41,0,2.82,0.14,4.23,0.43c1.41,0.29,2.48,0.58,3.2,0.88l1.06,0.46l0.08,0.11
				c-0.39,1.66-0.65,3.35-0.78,5.06l-1.16,0.04c-0.84-1.63-1.81-2.84-2.93-3.62s-2.53-1.17-4.24-1.17c-0.86,0-1.71,0.18-2.54,0.54
				c-0.83,0.36-1.63,0.93-2.4,1.69c-0.77,0.77-1.38,1.86-1.84,3.28c-0.46,1.42-0.69,3.06-0.69,4.92c0,2.8,0.78,5.35,2.35,7.63
				c1.57,2.29,3.39,3.43,5.47,3.43c1.84,0,3.32-0.23,4.44-0.7s2.41-1.39,3.85-2.78l0.95,1.33c-2.88,2.99-6.21,4.48-9.98,4.47
				c-3.32,0-6.15-0.86-8.48-2.57c-1.61-1.19-2.84-2.67-3.68-4.45c-0.84-1.77-1.26-3.65-1.26-5.63c0-2.13,0.42-4.11,1.26-5.94
				c0.84-1.83,2.03-3.34,3.57-4.54C236.2,386.23,239.38,385.26,243.27,385.26z"></path>
				<path style="fill:#00853E;" d="M275.36,393.63c0-3.01-0.15-5.63-0.46-7.85l0.08-0.11c1.24,0.08,2.31,0.11,3.19,0.11l3.23-0.11
				l0.04,0.11c-0.32,2.05-0.48,4.65-0.48,7.8v9.53c0,2.95,0.16,5.55,0.48,7.8l-0.08,0.11c-1.24-0.08-2.31-0.11-3.19-0.11l-3.23,0.11
				l-0.04-0.11c0.32-2.1,0.47-4.7,0.46-7.8v-4.32h-11.83v4.32c0,2.95,0.15,5.55,0.46,7.8l-0.08,0.11c-1.24-0.08-2.31-0.11-3.19-0.11
				l-3.23,0.11l-0.04-0.11c0.32-2.1,0.48-4.7,0.48-7.8v-9.53c0-2.99-0.16-5.59-0.48-7.8l0.08-0.11c1.24,0.08,2.31,0.11,3.19,0.11
				l3.23-0.11l0.04,0.12c-0.32,2.07-0.47,4.68-0.46,7.85v3.22h11.83V393.63z"></path>
				<path style="fill:#00853E;" d="M306.53,393.57c0-3.35-0.13-5.95-0.38-7.8l0.08-0.11c0.7,0.08,1.36,0.11,1.98,0.11l2-0.11
				l0.04,0.11c-0.25,1.71-0.39,4.31-0.4,7.8v5.84c0,7.92-3.56,11.88-10.67,11.87c-1.17,0-2.3-0.14-3.4-0.41s-2.23-0.73-3.37-1.38
				c-1.14-0.65-2.06-1.64-2.77-2.98c-0.7-1.34-1.06-2.94-1.06-4.8v-8.14c0-3.35-0.13-5.95-0.38-7.8l0.08-0.11
				c1.14,0.08,2.15,0.11,3.02,0.11l3.23-0.11l0.06,0.11c-0.25,1.71-0.39,4.31-0.4,7.8v6.85c0,0.91,0.07,1.78,0.2,2.6
				s0.38,1.69,0.74,2.62s0.96,1.68,1.79,2.25c0.83,0.57,1.85,0.86,3.07,0.86c1.34,0,2.47-0.23,3.38-0.69s1.59-1.14,2.03-2.03
				c0.44-0.89,0.74-1.79,0.89-2.71c0.15-0.92,0.23-1.99,0.23-3.2L306.53,393.57L306.53,393.57z"></path>
				<path style="fill:#00853E;" d="M323.5,402.72c0,2.65,0.1,4.32,0.3,5.02c1.56,0,3.27-0.07,5.12-0.21c1.86-0.14,3.32-0.29,4.4-0.44
				l1.62-0.21l0.08,0.15c-0.05,0.42-0.08,1.16-0.08,2.22c0,0.37,0.03,0.91,0.08,1.64l-0.08,0.11c-0.62-0.08-1.4-0.11-2.34-0.11
				h-11.85l-3.21,0.11l-0.06-0.11c0.25-1.76,0.39-4.36,0.4-7.8v-9.53c0-3.17-0.15-5.77-0.44-7.8l0.1-0.11
				c1.17,0.08,2.19,0.11,3.06,0.11l3.23-0.11l0.04,0.11c-0.25,1.71-0.38,4.31-0.38,7.8v9.16H323.5z"></path>
				<path style="fill:#00853E;" d="M345.66,403.1c0,2.6,0.1,4.25,0.3,4.94c1.56,0,3.27-0.07,5.12-0.21s3.32-0.28,4.4-0.42l1.62-0.23
				l0.08,0.17c-0.05,0.42-0.08,1.13-0.08,2.13c0,0.2,0.03,0.67,0.08,1.41L357.1,411c-0.62-0.08-1.4-0.11-2.34-0.11h-11.85L339.6,411
				l-0.04-0.11c0.32-2.1,0.48-4.7,0.48-7.8v-9.53c0-2.99-0.16-5.59-0.48-7.8l0.08-0.11c1.29,0.08,2.38,0.11,3.27,0.11h11.45
				c0.94,0,1.72-0.04,2.34-0.11l0.08,0.11c-0.05,0.72-0.08,1.18-0.08,1.37c0,0.65,0.03,1.18,0.08,1.6l-0.08,0.15
				c-3.69-0.32-7.27-0.47-10.74-0.47c-0.2,0.7-0.3,2.41-0.3,5.15v2.83c2.83,0,5.77-0.13,8.82-0.38l0.13,0.11
				c-0.08,0.34-0.12,0.82-0.12,1.45s0.03,1.11,0.12,1.46l-0.13,0.13c-2.57-0.25-5.51-0.39-8.82-0.4L345.66,403.1L345.66,403.1z"></path>
			</g>
			<g>
				<path style="fill:#00853E;" d="M36.23,341.19l5.43-5.02v12.48h5.92v-7.46l5.43-5.02v12.48h6.76v6.27H30.31
				c-0.39,1.82-1,3.47-1.83,4.95s-1.9,2.8-3.19,3.96c-1.39,1.26-2.94,2.19-4.63,2.79c-1.69,0.6-3.52,0.9-5.47,0.9
				c-3.72,0-6.72-1.11-9-3.34c-2.42-2.23-3.63-5.18-3.63-8.85c0-3.87,1.37-7.63,4.12-11.29c1.35-1.76,2.33-2.64,2.93-2.64l0.26,0.15
				c0.25,0.13,0.14,0.57-0.35,1.31c-2.23,3.31-3.34,6.43-3.34,9.35c0,2.63,0.84,4.82,2.53,6.56c1.76,1.66,3.94,2.5,6.53,2.5
				c2.38,0,4.45-0.63,6.21-1.89c2.13-1.57,3.19-3.71,3.19-6.42c0-0.66-0.08-1.34-0.25-2.03c-0.16-0.7-0.38-1.43-0.65-2.21
				c-0.35-1.1-1.26-3.21-2.73-6.33l5.23-6.21c1.28,2.25,2.28,4.4,3,6.47c0.73,2.07,1.19,4.07,1.41,6.01h5.57L36.23,341.19
				L36.23,341.19z"></path>
				<path style="fill:#00853E;" d="M75.91,354.92H57.3v-6.27h13.18v-7.46l5.43-5.02C75.91,336.17,75.91,354.92,75.91,354.92z
				 M67.55,363.75l-4.67,4.82l-4.79-4.82l4.79-4.93L67.55,363.75z M77.8,363.75l-4.73,4.82l-4.82-4.82l4.82-4.93L77.8,363.75z"></path>
				<path style="fill:#00853E;" d="M98.21,354.92H81.92c-1.76,0-2.64-0.56-2.64-1.68l0.12-0.75l0.84-6.62
				c0.08-0.43,0.22-0.64,0.44-0.64c0.27,0,0.41,0.25,0.41,0.75c0,0.46,0.04,0.86,0.13,1.17c0.09,0.32,0.21,0.59,0.36,0.8
				c0.14,0.14,0.36,0.27,0.67,0.39c0.31,0.13,0.69,0.23,1.13,0.3h9.96c0.08-0.99-0.05-1.93-0.39-2.84s-0.88-1.82-1.61-2.73
				c-0.6-0.74-1.29-1.4-2.08-2c-0.78-0.6-1.67-1.14-2.66-1.63l2.55-5.78c4.3,1.65,7.04,4.62,8.24,8.91
				C97.93,344.56,98.21,348.67,98.21,354.92z"></path>
				<path style="fill:#00853E;" d="M115.45,354.92h-13.73v-30.74l5.52,4.96v19.51h8.22v6.27H115.45z"></path>
				<path style="fill:#00853E;" d="M131.71,354.92H113.1v-6.27h13.18v-7.46l5.43-5.02L131.71,354.92L131.71,354.92z M128.48,363.75
				l-4.73,4.82l-4.79-4.82l4.79-4.93L128.48,363.75z"></path>
				<path style="fill:#00853E;" d="M183.81,354.92h-8.36c-0.89,3.81-2.65,6.83-5.28,9.06c-1.37,1.18-2.88,2.06-4.53,2.63
				s-3.44,0.86-5.37,0.86c-3.64,0-6.64-1.14-9-3.42c-2.36-2.25-3.54-5.2-3.54-8.85c0-1.93,0.34-3.83,1.03-5.69
				c0.69-1.86,1.71-3.7,3.06-5.51c1.35-1.76,2.33-2.64,2.93-2.64l0.29,0.06c0.21,0.16,0.07,0.62-0.44,1.39
				c-1.1,1.64-1.94,3.24-2.5,4.78s-0.84,3.06-0.84,4.57c0,2.65,0.86,4.81,2.58,6.47c0.87,0.83,1.85,1.47,2.93,1.92
				c1.08,0.45,2.29,0.67,3.63,0.67c1.16,0,2.25-0.17,3.28-0.51s1.99-0.83,2.9-1.47c2.09-1.51,3.14-3.6,3.14-6.27
				c0-1.3-0.25-2.76-0.75-4.38c-0.25-0.6-0.6-1.42-1.06-2.47c-0.46-1.04-1.03-2.33-1.73-3.86l5.14-6.12c1.28,2.21,2.28,4.35,3,6.43
				c0.73,2.08,1.21,4.12,1.47,6.11h8.01v6.24H183.81z M165.41,329.9l-4.64,4.82l-4.82-4.82l4.82-4.93L165.41,329.9z"></path>
				<path style="fill:#00853E;" d="M200.15,354.92h-18.61v-6.27h13.18v-7.46l5.43-5.02V354.92z M196.93,363.75l-4.73,4.82l-4.79-4.82
				l4.79-4.93L196.93,363.75z"></path>
				<path style="fill:#00853E;" d="M210.49,354.92H205v-25.78l5.49-4.96V354.92z"></path>
				<path style="fill:#00853E;" d="M255.74,354.92h-11.9V351l-4.96,4.73l-9.17-3.89c-0.52-0.21-0.78-0.56-0.78-1.04
				c0-0.33,0.1-0.66,0.29-0.99c0.99-1.53,2.14-3.06,3.45-4.59c1.32-1.53,2.83-3.06,4.56-4.59c2.05-1.9,3.94-3.31,5.66-4.25
				s3.27-1.41,4.64-1.41c1.12,0,1.68,0.56,1.68,1.68v11.99h6.53L255.74,354.92L255.74,354.92z M239.31,327.67l-4.73,4.82l-4.82-4.82
				l4.82-5.02L239.31,327.67z M243.84,348.65v-6.85c0-0.31-0.06-0.55-0.17-0.71c-0.12-0.16-0.32-0.25-0.61-0.25
				c-1.26,0-3.67,1.93-7.23,5.78l5.37,2.29c0.17,0.1,0.36,0.17,0.55,0.22s0.38,0.07,0.55,0.07
				C242.81,349.21,243.32,349.02,243.84,348.65z M249.47,327.67l-4.73,4.82l-4.73-4.82l4.73-5.02L249.47,327.67z"></path>
				<path style="fill:#00853E;" d="M267.97,354.92H253.4v-6.27h7.52v-7.46l5.46-5.02v12.48H272v-7.46l5.37-5.02v12.48h5.08v-7.46
				l5.37-5.02v18.75L267.97,354.92L267.97,354.92z"></path>
				<path style="fill:#00853E;" d="M305.06,352.4l-0.15,2.53c-0.27,2.57-0.97,4.8-2.09,6.68c-1.37,2.36-3.23,3.54-5.57,3.54
				c-1.26,0-2.56-0.31-3.9-0.94c-1.35-0.63-2.73-1.61-4.17-2.95c-0.5-0.5-0.72-0.87-0.64-1.1c0.21-0.54,0.64-0.64,1.28-0.29
				c1.24,0.7,2.49,1.04,3.74,1.04c1.88,0,3.3-0.86,4.27-2.58c0.39-0.66,0.67-1.42,0.84-2.28c0.17-0.86,0.26-1.81,0.26-2.86
				c0-3.54-1.11-6.99-3.34-10.33l4.38-6.39c1.68,2.42,2.95,4.94,3.8,7.58C304.64,346.67,305.06,349.46,305.06,352.4z"></path>
				<path style="fill:#00853E;" d="M335.31,354.92h-22.03c-1.76,0-2.64-0.54-2.64-1.63l0.09-0.81l0.9-6.62
				c0.06-0.43,0.19-0.64,0.41-0.64c0.29,0,0.44,0.25,0.44,0.75c0,0.46,0.04,0.86,0.13,1.17c0.09,0.32,0.18,0.59,0.28,0.8
				c0.17,0.14,0.42,0.27,0.74,0.39c0.32,0.13,0.7,0.23,1.15,0.3h9.96c0.14-1.93-0.51-3.79-1.94-5.57c-1.22-1.45-2.84-2.66-4.88-3.63
				l2.58-5.78c1.76,0.7,3.24,1.55,4.43,2.57c1.19,1.02,2.15,2.22,2.89,3.61c1.03,2.07,1.64,5,1.86,8.79h5.66v6.3H335.31z"></path>
				<path style="fill:#00853E;" d="M355.72,350.95c-0.08,0.74-0.43,1.73-1.04,2.99c-1.26,2.52-2.4,3.77-3.43,3.77
				c-0.17,0-0.36-0.03-0.57-0.1c-0.2-0.07-0.43-0.15-0.68-0.25c-0.91-0.39-2.14-0.95-3.69-1.68s-3.44-1.68-5.66-2.84
				c-0.46,0.91-1.04,1.51-1.74,1.8c-0.45,0.19-1.3,0.29-2.55,0.29h-3.43v-6.27h5.02c3.62-8.32,6.96-12.48,10.02-12.48
				c1.97,0,3.63,1.41,4.96,4.24c0.39,0.85,0.79,1.93,1.2,3.22c0.42,1.3,0.85,2.85,1.29,4.67c0.1,0.62,0.18,1.15,0.25,1.6
				C355.74,350.35,355.76,350.7,355.72,350.95z M350.7,350.74c-0.75-5.4-1.98-8.1-3.69-8.1c-0.27,0-0.78,0.35-1.54,1.04
				c-0.93,0.87-1.69,1.92-2.29,3.14c1.26,0.99,2.51,1.8,3.76,2.44C348.19,349.9,349.44,350.4,350.7,350.74z"></path>
			</g>
		</g>
		<g>
			<path style="fill:#82BC41;" d="M414.72,233.92c0-5.03-0.26-9.39-0.77-13.1l0.13-0.19c2.09,0.13,3.88,0.19,5.37,0.19l5.43-0.19
			l0.06,0.19c-0.53,3.45-0.8,7.82-0.8,13.1v16c0,4.96,0.27,9.33,0.8,13.1l-0.16,0.19c-2.09-0.13-3.87-0.19-5.33-0.19l-5.43,0.19
			l-0.06-0.19c0.53-3.54,0.79-7.9,0.77-13.1v-16H414.72z"></path>
			<path style="fill:#82BC41;" d="M438.36,220.82c1.54,0,3.55-0.03,6.03-0.1c2.48-0.06,4.02-0.1,4.62-0.1c2.81,0,5.24,0.31,7.31,0.94
			s3.63,1.47,4.69,2.52s1.84,2.12,2.34,3.21s0.75,2.24,0.75,3.45c0,1.73-0.63,3.43-1.89,5.07c-1.26,1.65-2.76,2.92-4.5,3.81
			c3.13,0.91,5.68,2.32,7.63,4.22c1.96,1.91,2.94,4.31,2.94,7.21c0,3.21-1.48,6.04-4.44,8.48s-7.43,3.66-13.41,3.66
			c-2.05,0-4.2-0.03-6.46-0.1c-2.25-0.06-4.13-0.1-5.62-0.1l-5.62,0.19l-0.06-0.19c0.53-3.54,0.8-7.9,0.8-13.1v-16
			c0-5.03-0.27-9.39-0.8-13.1l0.13-0.19C434.99,220.76,436.85,220.82,438.36,220.82z M442.89,226.94v11.76h5.1
			c2.61,0,4.38-0.55,5.3-1.64c0.92-1.09,1.39-2.92,1.39-5.49c0-2.83-0.49-4.81-1.47-5.96c-0.98-1.15-2.44-1.73-4.4-1.73
			c-2.53,0-4.15,0.22-4.86,0.66S442.89,225.78,442.89,226.94z M442.89,241.97v14.85c0,1.14,0.39,1.95,1.16,2.42s2.28,0.71,4.51,0.71
			c2.13,0,3.83-0.17,5.12-0.5s2.21-0.89,2.77-1.66c0.56-0.78,0.92-1.53,1.08-2.28c0.16-0.74,0.24-1.8,0.24-3.18
			c0-6.93-2.94-10.39-8.83-10.36L442.89,241.97L442.89,241.97z"></path>
			<path style="fill:#82BC41;" d="M486.43,260.4c4.06,0,6.1-2.25,6.12-6.76c0-1.26-0.55-2.51-1.65-3.76s-2.46-2.29-4.08-3.12
			c-4.51-2.33-7.62-4.28-9.36-5.86c-0.89-0.81-1.64-1.63-2.26-2.47c-1.3-1.75-1.96-4.11-1.98-7.08c0-3.38,1.37-6.12,4.1-8.22
			s5.99-3.16,9.77-3.16c2.32,0,4.56,0.24,6.73,0.73c2.17,0.48,3.77,0.98,4.79,1.5l1.53,0.77l0.15,0.19
			c-0.47,1.54-0.89,4.15-1.26,7.85l-1.91,0.1c-1.03-1.96-2.4-3.77-4.12-5.41s-3.46-2.47-5.21-2.47s-3.18,0.64-4.29,1.91
			c-1.11,1.27-1.67,2.75-1.67,4.44c0,1.13,0.17,2.14,0.5,3.03s0.85,1.64,1.57,2.27s1.39,1.12,2.02,1.47c0.63,0.35,1.5,0.78,2.61,1.3
			c1.79,0.83,3.24,1.57,4.33,2.21s2.37,1.52,3.82,2.63c1.46,1.11,2.57,2.38,3.33,3.79s1.15,2.98,1.15,4.69
			c0,3.46-1.42,6.45-4.26,8.95s-6.53,3.75-11.06,3.75c-2.31,0-4.62-0.23-6.92-0.69c-2.3-0.46-4.02-0.93-5.14-1.4l-1.74-0.74
			l-0.13-0.18c0.49-1.79,0.93-4.46,1.31-8l1.67-0.06c1.19,1.88,2.95,3.65,5.28,5.32C482.5,259.57,484.59,260.4,486.43,260.4z"></path>
		</g>
		<g>
			<g>
				<circle style="fill:#00853E;" cx="375.97" cy="135.39" r="11.17"></circle>
			</g>
			<g>
				<path style="fill:#00853E;" d="M393.22,267.94c-32.55-64,4.97-110.34,35.31-136.28c-23.17,12.14-73.38,48-107.03-9.93
				c0,0,27.03,48.03,32,62.91C358.46,199.53,367.44,264,393.22,267.94z"></path>
			</g>
		</g>
		<g>
			<g>
				<path style="fill:#F0DAA4;" d="M257.77,259.37c-15.99-6.7-31.35-15.11-45.65-25.01c-28.17-19.5-51.56-44.02-69.52-72.88
				c-17.34-27.87-28.85-58.49-34.22-91.03l-0.76-4.58l3.85,2.59c12.85,8.67,26.59,16.14,40.84,22.2l1.01,0.43l0.18,1.08
				c5.32,31.94,16.66,62,33.71,89.35c17.65,28.32,40.63,52.39,68.29,71.54c1.37,0.95,2.75,1.87,4.14,2.79L257.77,259.37z
				 M113.12,74.35c5.58,30.32,16.62,58.9,32.88,85.02c17.66,28.39,40.68,52.51,68.4,71.7l0,0c8.24,5.7,16.83,10.9,25.69,15.56
				c-22.32-17.68-41.21-38.8-56.27-62.98c-17.13-27.49-28.6-57.67-34.08-89.73C137.04,88.45,124.75,81.88,113.12,74.35z"></path>
			</g>
		</g>
		<g>
			<g>
				<path style="fill:#FDBF6A;" d="M257.25,259.06c-13.26-11.16-25.41-23.77-36.11-37.48c-43.99-56.4-61.54-129.08-48.15-199.42
				l0.8-4.18l2.71,3.28c9.75,11.8,20.68,22.75,32.49,32.56l0.91,0.75l-0.22,1.16c-13.33,69.35,3.91,141.02,47.3,196.64
				c1.03,1.31,2.07,2.61,3.12,3.89L257.25,259.06z M176.16,27.07c-11.71,67.9,5.72,137.67,48.13,192.04
				c6.18,7.92,12.84,15.46,19.94,22.56c-36.77-54.1-50.83-120.78-38.7-185.54C194.97,47.28,185.11,37.52,176.16,27.07z"></path>
			</g>
		</g>
		<g>
			<g>
				<path style="fill:#00853E;" d="M256.82,258.55c-8.85-14.9-16.17-30.81-21.76-47.28l0,0c-23.38-68.9-15.43-144.33,21.8-206.95
				l2.14-3.6l1.46,3.92c5.34,14.37,12.08,28.3,20.01,41.38l0.62,1.03l-0.62,1.03c-36.86,61.7-44.78,136.08-21.71,204.06
				c0.54,1.58,1.1,3.14,1.66,4.7L256.82,258.55z M238.85,209.98c3.23,9.5,7.04,18.82,11.39,27.85
				C233,173.5,242.26,104.88,276.42,47.07c-7.08-11.8-13.19-24.27-18.22-37.11C223.37,70.84,216.29,143.5,238.85,209.98
				L238.85,209.98z"></path>
			</g>
		</g>
		<g>
			<g>
				<path style="fill:#82BC41;" d="M257.2,260.83l-0.61-2.89c-3.59-16.96-5.42-34.37-5.42-51.77c0-38.89,8.73-76.13,25.96-110.69
				c16.42-32.95,40.48-62.39,69.56-85.15l3.6-2.81l-0.37,4.55c-0.55,6.72-0.82,13.46-0.82,20.04c0,9.73,0.59,19.61,1.76,29.38
				l0.13,1.09l-0.85,0.7c-26.54,21.75-45.44,47.97-57.79,80.18c-11.35,29.63-16.87,63.67-16.87,104.07v1.07L257.2,260.83z
				 M345.6,16.32c-57.53,46.7-90.43,115.64-90.43,189.85c0,16.12,1.59,32.27,4.73,48.03l11.58-7.75
				c0.1-40.43,5.71-74.6,17.14-104.43c12.47-32.53,31.49-59.09,58.14-81.15c-1.1-9.57-1.66-19.24-1.66-28.77
				C345.09,26.92,345.26,21.62,345.6,16.32z"></path>
			</g>
		</g>
		<g>
			<g>
				<path style="fill:#D21F36;" d="M411.43,171.22c2.38-3.43,4.92-6.67,7.62-9.72c-5.61,4.54-10.69,9.93-15.01,16.16
				c-14.32,20.68-17.16,45.89-9.93,68.09C390.33,220.52,395.77,193.85,411.43,171.22z"></path>
			</g>
		</g>
		<g>
			<g>
				<path style="fill:#00853E;" d="M451.02,310.31c-48.84-25.54-103.31-33.18-154.98-24.46c-1.49,5.52-2.77,11.08-3.87,16.66
				C343.65,287.79,399.59,289.84,451.02,310.31z"></path>
			</g>
			<g>
				<g>
					<path style="fill:#00853E;" d="M283.85,294.79c3.15,2.18,5.83,4.79,8.03,7.69c-0.39-8.48-4.59-16.68-12.11-21.88
					c-12.8-8.86-30.35-5.67-39.21,7.13c-3.15,4.55-4.77,9.7-4.98,14.85C246.91,287.51,268.22,283.96,283.85,294.79z"></path>
				</g>
			</g>
			<g>
				<path style="fill:#00853E;" d="M20.29,281.69c3.92-13.89,8.06-27.69,12.43-41.38c73.97-17.02,153.56-8.63,224.47,27.84
				c-2.19-1.35-4.38-2.68-6.59-3.98c-0.74-0.44-1.49-0.85-2.23-1.28c-1.47-0.85-2.94-1.7-4.42-2.52c-0.9-0.5-1.8-0.98-2.7-1.47
				c-1.33-0.73-2.67-1.46-4.01-2.16c-0.97-0.51-1.95-1.01-2.92-1.51c-1.28-0.66-2.55-1.32-3.84-1.96c-1.02-0.51-2.04-1-3.06-1.49
				c-1.25-0.61-2.5-1.21-3.75-1.8c-1.05-0.49-2.11-0.98-3.16-1.46c-1.23-0.56-2.46-1.12-3.69-1.66c-1.08-0.48-2.16-0.95-3.25-1.41
				c-1.21-0.52-2.43-1.04-3.65-1.54c-1.11-0.46-2.21-0.91-3.32-1.36c-1.2-0.48-2.4-0.96-3.6-1.42c-1.13-0.44-2.26-0.88-3.39-1.3
				c-1.19-0.45-2.38-0.88-3.57-1.31c-1.15-0.42-2.3-0.84-3.46-1.24c-1.17-0.41-2.35-0.81-3.53-1.2c-1.18-0.4-2.36-0.8-3.54-1.18
				c-1.15-0.37-2.31-0.73-3.46-1.09c-1.21-0.38-2.42-0.76-3.63-1.13c-1.11-0.33-2.22-0.65-3.33-0.97c-1.26-0.36-2.52-0.74-3.79-1.08
				c-1.01-0.28-2.02-0.54-3.03-0.8c-1.37-0.36-2.74-0.74-4.12-1.08c-0.47-0.12-0.95-0.22-1.42-0.34c-3.75-0.92-7.51-1.78-11.28-2.57
				c-0.41-0.09-0.81-0.18-1.22-0.26c-1.61-0.33-3.22-0.63-4.82-0.94c-0.78-0.15-1.55-0.3-2.33-0.45c-1.54-0.28-3.08-0.54-4.62-0.79
				c-0.85-0.14-1.7-0.29-2.55-0.43c-1.52-0.24-3.04-0.46-4.56-0.68c-0.87-0.13-1.74-0.26-2.61-0.38c-1.52-0.21-3.04-0.4-4.56-0.58
				c-0.87-0.11-1.74-0.22-2.61-0.32c-1.53-0.17-3.05-0.33-4.58-0.49c-0.86-0.09-1.73-0.17-2.59-0.25c-1.54-0.14-3.08-0.27-4.62-0.39
				c-0.84-0.07-1.69-0.13-2.53-0.19c-1.57-0.11-3.13-0.21-4.7-0.3c-0.81-0.05-1.61-0.09-2.42-0.13c-1.6-0.08-3.21-0.15-4.81-0.2
				c-0.76-0.03-1.51-0.05-2.27-0.07c-1.65-0.04-3.3-0.08-4.96-0.1c-0.69-0.01-1.37-0.01-2.06-0.01c-1.72-0.01-3.45-0.01-5.17,0
				c-0.57,0.01-1.13,0.02-1.7,0.03c-1.84,0.03-3.68,0.06-5.52,0.12c-0.35,0.01-0.7,0.03-1.04,0.04
				c-16.71,0.58-33.34,2.41-49.74,5.49c-2.21,6.63-4.37,13.28-6.48,19.95c0.01,0,0.01,0,0.02,0c-4.43,14.03-8.61,28.16-12.56,42.39
				c-1.02,3.68-2.03,7.37-3.02,11.06c74.5-26.57,157.56-25.76,233.37,4.64c0.07-3.33,0.1-6.65,0.06-9.97
				C164.97,264.8,89.62,261.73,20.29,281.69z"></path>
			</g>
		</g>
		<g>
			<g>
				<path style="fill:#DA1A32;" d="M310.73,201.18c0-15.84,7.85-30.15,20.49-40.43c-10.59,2.97-19.6,9.33-25.06,18.79
				c-12.64,21.89-1.48,51.99,24.92,67.23c9.03,5.22,18.68,8.01,27.97,8.56C331.08,248.26,310.73,226.69,310.73,201.18z"></path>
			</g>
		</g>
	</g>

</svg>
