<svg>
	<g>
		<g>
			<g>
				<circle style="fill:#00853E;" cx="375.97" cy="135.39" r="11.17"></circle>
			</g>
			<g>
				<path style="fill:#00853E;" d="M393.22,267.94c-32.55-64,4.97-110.34,35.31-136.28c-23.17,12.14-73.38,48-107.03-9.93
				c0,0,27.03,48.03,32,62.91C358.46,199.53,367.44,264,393.22,267.94z"></path>
			</g>
		</g>
		<g>
			<g>
				<path style="fill:#F0DAA4;" d="M257.77,259.37c-15.99-6.7-31.35-15.11-45.65-25.01c-28.17-19.5-51.56-44.02-69.52-72.88
				c-17.34-27.87-28.85-58.49-34.22-91.03l-0.76-4.58l3.85,2.59c12.85,8.67,26.59,16.14,40.84,22.2l1.01,0.43l0.18,1.08
				c5.32,31.94,16.66,62,33.71,89.35c17.65,28.32,40.63,52.39,68.29,71.54c1.37,0.95,2.75,1.87,4.14,2.79L257.77,259.37z
				 M113.12,74.35c5.58,30.32,16.62,58.9,32.88,85.02c17.66,28.39,40.68,52.51,68.4,71.7l0,0c8.24,5.7,16.83,10.9,25.69,15.56
				c-22.32-17.68-41.21-38.8-56.27-62.98c-17.13-27.49-28.6-57.67-34.08-89.73C137.04,88.45,124.75,81.88,113.12,74.35z"></path>
			</g>
		</g>
		<g>
			<g>
				<path style="fill:#FDBF6A;" d="M257.25,259.06c-13.26-11.16-25.41-23.77-36.11-37.48c-43.99-56.4-61.54-129.08-48.15-199.42
				l0.8-4.18l2.71,3.28c9.75,11.8,20.68,22.75,32.49,32.56l0.91,0.75l-0.22,1.16c-13.33,69.35,3.91,141.02,47.3,196.64
				c1.03,1.31,2.07,2.61,3.12,3.89L257.25,259.06z M176.16,27.07c-11.71,67.9,5.72,137.67,48.13,192.04
				c6.18,7.92,12.84,15.46,19.94,22.56c-36.77-54.1-50.83-120.78-38.7-185.54C194.97,47.28,185.11,37.52,176.16,27.07z"></path>
			</g>
		</g>
		<g>
			<g>
				<path style="fill:#00853E;" d="M256.82,258.55c-8.85-14.9-16.17-30.81-21.76-47.28l0,0c-23.38-68.9-15.43-144.33,21.8-206.95
				l2.14-3.6l1.46,3.92c5.34,14.37,12.08,28.3,20.01,41.38l0.62,1.03l-0.62,1.03c-36.86,61.7-44.78,136.08-21.71,204.06
				c0.54,1.58,1.1,3.14,1.66,4.7L256.82,258.55z M238.85,209.98c3.23,9.5,7.04,18.82,11.39,27.85
				C233,173.5,242.26,104.88,276.42,47.07c-7.08-11.8-13.19-24.27-18.22-37.11C223.37,70.84,216.29,143.5,238.85,209.98
				L238.85,209.98z"></path>
			</g>
		</g>
		<g>
			<g>
				<path style="fill:#82BC41;" d="M257.2,260.83l-0.61-2.89c-3.59-16.96-5.42-34.37-5.42-51.77c0-38.89,8.73-76.13,25.96-110.69
				c16.42-32.95,40.48-62.39,69.56-85.15l3.6-2.81l-0.37,4.55c-0.55,6.72-0.82,13.46-0.82,20.04c0,9.73,0.59,19.61,1.76,29.38
				l0.13,1.09l-0.85,0.7c-26.54,21.75-45.44,47.97-57.79,80.18c-11.35,29.63-16.87,63.67-16.87,104.07v1.07L257.2,260.83z
				 M345.6,16.32c-57.53,46.7-90.43,115.64-90.43,189.85c0,16.12,1.59,32.27,4.73,48.03l11.58-7.75
				c0.1-40.43,5.71-74.6,17.14-104.43c12.47-32.53,31.49-59.09,58.14-81.15c-1.1-9.57-1.66-19.24-1.66-28.77
				C345.09,26.92,345.26,21.62,345.6,16.32z"></path>
			</g>
		</g>
		<g>
			<g>
				<path style="fill:#D21F36;" d="M411.43,171.22c2.38-3.43,4.92-6.67,7.62-9.72c-5.61,4.54-10.69,9.93-15.01,16.16
				c-14.32,20.68-17.16,45.89-9.93,68.09C390.33,220.52,395.77,193.85,411.43,171.22z"></path>
			</g>
		</g>
		<g>
			<g>
				<path style="fill:#00853E;" d="M451.02,310.31c-48.84-25.54-103.31-33.18-154.98-24.46c-1.49,5.52-2.77,11.08-3.87,16.66
				C343.65,287.79,399.59,289.84,451.02,310.31z"></path>
			</g>
			<g>
				<g>
					<path style="fill:#00853E;" d="M283.85,294.79c3.15,2.18,5.83,4.79,8.03,7.69c-0.39-8.48-4.59-16.68-12.11-21.88
					c-12.8-8.86-30.35-5.67-39.21,7.13c-3.15,4.55-4.77,9.7-4.98,14.85C246.91,287.51,268.22,283.96,283.85,294.79z"></path>
				</g>
			</g>
			<g>
				<path style="fill:#00853E;" d="M20.29,281.69c3.92-13.89,8.06-27.69,12.43-41.38c73.97-17.02,153.56-8.63,224.47,27.84
				c-2.19-1.35-4.38-2.68-6.59-3.98c-0.74-0.44-1.49-0.85-2.23-1.28c-1.47-0.85-2.94-1.7-4.42-2.52c-0.9-0.5-1.8-0.98-2.7-1.47
				c-1.33-0.73-2.67-1.46-4.01-2.16c-0.97-0.51-1.95-1.01-2.92-1.51c-1.28-0.66-2.55-1.32-3.84-1.96c-1.02-0.51-2.04-1-3.06-1.49
				c-1.25-0.61-2.5-1.21-3.75-1.8c-1.05-0.49-2.11-0.98-3.16-1.46c-1.23-0.56-2.46-1.12-3.69-1.66c-1.08-0.48-2.16-0.95-3.25-1.41
				c-1.21-0.52-2.43-1.04-3.65-1.54c-1.11-0.46-2.21-0.91-3.32-1.36c-1.2-0.48-2.4-0.96-3.6-1.42c-1.13-0.44-2.26-0.88-3.39-1.3
				c-1.19-0.45-2.38-0.88-3.57-1.31c-1.15-0.42-2.3-0.84-3.46-1.24c-1.17-0.41-2.35-0.81-3.53-1.2c-1.18-0.4-2.36-0.8-3.54-1.18
				c-1.15-0.37-2.31-0.73-3.46-1.09c-1.21-0.38-2.42-0.76-3.63-1.13c-1.11-0.33-2.22-0.65-3.33-0.97c-1.26-0.36-2.52-0.74-3.79-1.08
				c-1.01-0.28-2.02-0.54-3.03-0.8c-1.37-0.36-2.74-0.74-4.12-1.08c-0.47-0.12-0.95-0.22-1.42-0.34c-3.75-0.92-7.51-1.78-11.28-2.57
				c-0.41-0.09-0.81-0.18-1.22-0.26c-1.61-0.33-3.22-0.63-4.82-0.94c-0.78-0.15-1.55-0.3-2.33-0.45c-1.54-0.28-3.08-0.54-4.62-0.79
				c-0.85-0.14-1.7-0.29-2.55-0.43c-1.52-0.24-3.04-0.46-4.56-0.68c-0.87-0.13-1.74-0.26-2.61-0.38c-1.52-0.21-3.04-0.4-4.56-0.58
				c-0.87-0.11-1.74-0.22-2.61-0.32c-1.53-0.17-3.05-0.33-4.58-0.49c-0.86-0.09-1.73-0.17-2.59-0.25c-1.54-0.14-3.08-0.27-4.62-0.39
				c-0.84-0.07-1.69-0.13-2.53-0.19c-1.57-0.11-3.13-0.21-4.7-0.3c-0.81-0.05-1.61-0.09-2.42-0.13c-1.6-0.08-3.21-0.15-4.81-0.2
				c-0.76-0.03-1.51-0.05-2.27-0.07c-1.65-0.04-3.3-0.08-4.96-0.1c-0.69-0.01-1.37-0.01-2.06-0.01c-1.72-0.01-3.45-0.01-5.17,0
				c-0.57,0.01-1.13,0.02-1.7,0.03c-1.84,0.03-3.68,0.06-5.52,0.12c-0.35,0.01-0.7,0.03-1.04,0.04
				c-16.71,0.58-33.34,2.41-49.74,5.49c-2.21,6.63-4.37,13.28-6.48,19.95c0.01,0,0.01,0,0.02,0c-4.43,14.03-8.61,28.16-12.56,42.39
				c-1.02,3.68-2.03,7.37-3.02,11.06c74.5-26.57,157.56-25.76,233.37,4.64c0.07-3.33,0.1-6.65,0.06-9.97
				C164.97,264.8,89.62,261.73,20.29,281.69z"></path>
			</g>
		</g>
		<g>
			<g>
				<path style="fill:#DA1A32;" d="M310.73,201.18c0-15.84,7.85-30.15,20.49-40.43c-10.59,2.97-19.6,9.33-25.06,18.79
				c-12.64,21.89-1.48,51.99,24.92,67.23c9.03,5.22,18.68,8.01,27.97,8.56C331.08,248.26,310.73,226.69,310.73,201.18z"></path>
			</g>
		</g>
	</g>
</svg>