<svg width="500" height="500" viewBox="0 0 500 500" fill="none" xmlns="http://www.w3.org/2000/svg">
<path d="M483.82 121.6H414.91V193.43H483.82V121.6Z" fill="#E0E0E0"/>
<path d="M479.15 121.6H410.24V193.43H479.15V121.6Z" fill="#FAFAFA"/>
<path d="M479.17 193.45H410.22V121.58H479.17V193.45ZM410.26 193.45H479.13V121.62H410.26V193.45Z" fill="#E0E0E0"/>
<path d="M469.89 131.26H419.51V183.78H469.89V131.26Z" fill="white"/>
<path d="M419.51 184.12C419.153 184.652 418.733 185.139 418.26 185.57C417.46 186.42 416.33 187.57 415.06 188.81C413.79 190.05 412.63 191.17 411.77 191.96C411.332 192.422 410.842 192.832 410.31 193.18C410.663 192.652 411.08 192.168 411.55 191.74C412.35 190.89 413.49 189.74 414.76 188.48C416.03 187.22 417.2 186.12 418.06 185.33C418.493 184.87 418.98 184.464 419.51 184.12Z" fill="#E0E0E0"/>
<path d="M469.89 184C470.415 184.362 470.898 184.782 471.33 185.25C472.18 186.05 473.33 187.18 474.58 188.45C475.83 189.72 476.94 190.88 477.73 191.74C478.195 192.172 478.602 192.663 478.94 193.2C478.419 192.852 477.936 192.45 477.5 192C476.65 191.19 475.5 190.06 474.25 188.79C473 187.52 471.88 186.35 471.09 185.49C470.628 185.047 470.225 184.546 469.89 184Z" fill="#E0E0E0"/>
<path d="M469.75 131.4C470.112 130.887 470.531 130.417 471 130C471.81 129.15 472.94 128 474.2 126.75C475.46 125.5 476.64 124.39 477.5 123.6C477.934 123.141 478.421 122.735 478.95 122.39C478.596 122.915 478.183 123.398 477.72 123.83C476.91 124.68 475.78 125.83 474.51 127.08C473.24 128.33 472.07 129.45 471.21 130.24C470.768 130.68 470.278 131.069 469.75 131.4Z" fill="#E0E0E0"/>
<path d="M419.37 131.52C418.837 131.169 418.35 130.752 417.92 130.28C417.07 129.48 415.92 128.35 414.68 127.08C413.44 125.81 412.31 124.65 411.53 123.79C411.071 123.35 410.662 122.86 410.31 122.33C410.839 122.683 411.322 123.1 411.75 123.57C412.6 124.37 413.75 125.51 415 126.78C416.25 128.05 417.37 129.22 418.16 130.07C418.617 130.506 419.022 130.993 419.37 131.52Z" fill="#E0E0E0"/>
<path d="M469.75 183.77C469.74 183.687 469.74 183.603 469.75 183.52C469.75 183.34 469.75 183.1 469.75 182.78C469.75 182.13 469.75 181.18 469.75 179.95C469.75 177.46 469.75 173.84 469.7 169.25C469.7 160.05 469.7 146.94 469.6 131.25L469.8 131.44H419.56L419.78 131.22C419.78 150.49 419.78 168.52 419.78 183.73L419.59 183.54L455.96 183.64H466.18H468.89H466.22L456.05 183.69L419.55 183.78H419.35V183.59C419.35 168.38 419.35 150.35 419.35 131.08V131H419.58H469.82H470.01V131.2C470.01 146.94 469.94 160.08 469.91 169.31C469.91 173.89 469.91 177.49 469.91 179.97C469.91 181.18 469.91 182.12 469.91 182.77C469.91 183.07 469.91 183.31 469.91 183.48C469.866 183.582 469.813 183.679 469.75 183.77Z" fill="#E0E0E0"/>
<path d="M444.59 161L437.59 161.09L436.29 164.23L432.7 164.28L439.26 149.61H442.72L449.72 164.1L446.04 164.15L444.59 161ZM443.45 158.45L441 152.9L438.67 158.52L443.45 158.45Z" fill="#E0E0E0"/>
<path d="M457.85 159L457.92 164.14H456.4V163.01C456.06 163.442 455.618 163.784 455.114 164.004C454.609 164.224 454.058 164.315 453.51 164.27C451.51 164.27 450.23 163.27 450.21 161.81C450.19 160.35 451.1 159.31 453.73 159.27H456.27V159C456.27 157.7 455.46 157 453.87 157C452.86 156.998 451.879 157.333 451.08 157.95L450.4 156.8C451.457 156.034 452.735 155.634 454.04 155.66C456.44 155.59 457.82 156.7 457.85 159ZM456.28 161.56V160.4H453.8C452.22 160.4 451.8 161.02 451.8 161.74C451.8 162.46 452.55 163.11 453.8 163.1C454.317 163.126 454.83 162.996 455.273 162.727C455.715 162.458 456.066 162.062 456.28 161.59V161.56Z" fill="#E0E0E0"/>
<path d="M474.16 208.56H417.59V267.53H474.16V208.56Z" fill="#E0E0E0"/>
<path d="M470.33 208.56H413.76V267.53H470.33V208.56Z" fill="#FAFAFA"/>
<path d="M470.35 267.55H413.74V208.55H470.35V267.55ZM413.78 267.55H470.31V208.57H413.78V267.55Z" fill="#E0E0E0"/>
<path d="M462.73 216.48H421.37V259.6H462.73V216.48Z" fill="white"/>
<path d="M421.37 259.89C421.084 260.321 420.748 260.717 420.37 261.07C419.7 261.77 418.78 262.71 417.74 263.74C416.7 264.77 415.74 265.68 415.03 266.33C414.673 266.708 414.274 267.044 413.84 267.33C414.126 266.899 414.461 266.503 414.84 266.15C415.5 265.45 416.44 264.51 417.48 263.48C418.52 262.45 419.48 261.54 420.19 260.89C420.537 260.506 420.934 260.17 421.37 259.89Z" fill="#E0E0E0"/>
<path d="M462.73 259.78C463.161 260.066 463.557 260.402 463.91 260.78C464.61 261.44 465.55 262.37 466.58 263.41C467.61 264.45 468.52 265.41 469.17 266.11C469.55 266.468 469.886 266.871 470.17 267.31C469.744 267.017 469.348 266.682 468.99 266.31C468.29 265.65 467.35 264.72 466.32 263.68C465.29 262.64 464.38 261.68 463.73 260.97C463.348 260.617 463.012 260.217 462.73 259.78Z" fill="#E0E0E0"/>
<path d="M462.61 216.6C462.898 216.167 463.233 215.768 463.61 215.41C464.28 214.72 465.2 213.77 466.24 212.75C467.28 211.73 468.24 210.81 468.95 210.16C469.303 209.778 469.703 209.442 470.14 209.16C469.854 209.591 469.519 209.987 469.14 210.34C468.48 211.03 467.55 211.98 466.5 213.01C465.45 214.04 464.5 214.95 463.79 215.6C463.443 215.984 463.046 216.321 462.61 216.6Z" fill="#E0E0E0"/>
<path d="M421.25 216.71C420.818 216.425 420.422 216.089 420.07 215.71C419.37 215.05 418.43 214.13 417.4 213.09C416.37 212.05 415.46 211.09 414.81 210.38C414.432 210.023 414.096 209.624 413.81 209.19C414.241 209.476 414.637 209.811 414.99 210.19C415.69 210.85 416.63 211.78 417.66 212.83C418.69 213.88 419.6 214.83 420.25 215.54C420.633 215.884 420.97 216.278 421.25 216.71Z" fill="#E0E0E0"/>
<path d="M462.61 259.6V259.39C462.61 259.24 462.61 259.05 462.61 258.79C462.61 258.25 462.61 257.47 462.61 256.46C462.61 254.46 462.61 251.46 462.61 247.67C462.61 240.12 462.56 229.37 462.52 216.48L462.68 216.64H421.44L421.62 216.45C421.62 232.28 421.62 247.08 421.62 259.57L421.47 259.41L451.33 259.49H459.72H461.94H459.75H451.39L421.39 259.57H421.23V259.41C421.23 246.92 421.23 232.12 421.23 216.29V216.11H421.42H462.66H462.82V216.27C462.82 229.2 462.76 239.99 462.74 247.57C462.74 251.32 462.74 254.28 462.74 256.32C462.74 257.32 462.74 258.08 462.74 258.61C462.74 258.86 462.74 259.06 462.74 259.2C462.74 259.34 462.62 259.6 462.61 259.6Z" fill="#E0E0E0"/>
<path d="M445.16 240.16C445.16 242.23 443.5 243.45 440.24 243.5L433.81 243.58L433.65 231.58L439.72 231.5C442.83 231.5 444.45 232.69 444.47 234.55C444.486 235.101 444.342 235.645 444.054 236.116C443.767 236.587 443.348 236.963 442.85 237.2C443.514 237.357 444.105 237.736 444.525 238.274C444.945 238.812 445.169 239.477 445.16 240.16ZM436.54 233.66V236.48H439.4C440.81 236.48 441.56 235.97 441.55 235.03C441.54 234.09 440.77 233.64 439.37 233.66H436.54ZM442.27 239.91C442.27 238.91 441.45 238.43 439.96 238.45L436.6 238.5V241.5L439.95 241.45C441.49 241.39 442.28 240.94 442.27 239.91Z" fill="#E0E0E0"/>
<path d="M454.62 240C454.643 240.481 454.565 240.962 454.391 241.412C454.217 241.861 453.951 242.27 453.61 242.611C453.27 242.951 452.861 243.217 452.412 243.391C451.962 243.565 451.481 243.643 451 243.62C450.505 243.648 450.011 243.558 449.557 243.358C449.103 243.159 448.703 242.854 448.39 242.47V243.57H447.13L447 233.8H448.31L448.36 237.65C448.665 237.279 449.05 236.982 449.487 236.783C449.924 236.584 450.4 236.487 450.88 236.5C451.361 236.459 451.845 236.52 452.301 236.678C452.758 236.837 453.175 237.089 453.528 237.419C453.88 237.749 454.16 238.149 454.348 238.594C454.536 239.038 454.629 239.517 454.62 240ZM453.29 240C453.282 239.516 453.131 239.045 452.856 238.647C452.58 238.249 452.193 237.941 451.743 237.763C451.293 237.584 450.8 237.543 450.327 237.645C449.854 237.746 449.421 237.986 449.083 238.333C448.746 238.68 448.519 239.119 448.431 239.595C448.343 240.071 448.398 240.563 448.589 241.008C448.781 241.452 449.099 241.831 449.505 242.094C449.911 242.358 450.386 242.496 450.87 242.49C451.197 242.502 451.523 242.445 451.827 242.323C452.13 242.201 452.405 242.017 452.633 241.782C452.861 241.548 453.037 241.268 453.15 240.961C453.264 240.654 453.311 240.327 453.29 240Z" fill="#E0E0E0"/>
<path d="M395.07 98.3101H103.36V306.65H395.07V98.3101Z" fill="#E0E0E0"/>
<path d="M386.05 106.63H110.29V298.64H386.05V106.63Z" fill="#F5F5F5"/>
<path d="M411.1 306.65H93.86V314.94H411.1V306.65Z" fill="#EBEBEB"/>
<path d="M103.46 98.5C106.22 100.95 108.85 103.5 111.36 106.24L103.46 98.5Z" fill="#EBEBEB"/>
<path d="M111.36 106.24C109.943 105.071 108.607 103.808 107.36 102.46C105.984 101.216 104.694 99.8797 103.5 98.4601C105.049 99.4821 106.47 100.687 107.73 102.05C109.105 103.295 110.324 104.702 111.36 106.24Z" fill="#EBEBEB"/>
<path d="M386.27 107.24L395.09 98.6901L386.27 107.24Z" fill="#EBEBEB"/>
<path d="M395.08 98.6901C393.804 100.295 392.392 101.787 390.86 103.15C389.451 104.644 387.916 106.012 386.27 107.24C387.55 105.638 388.961 104.146 390.49 102.78C391.902 101.29 393.437 99.9216 395.08 98.6901Z" fill="#EBEBEB"/>
<path d="M386.76 298.6C389.76 301.31 395.69 306.6 395.07 306.6L386.76 298.6Z" fill="#EBEBEB"/>
<path d="M395.07 306.65C393.749 305.266 392.357 303.951 390.9 302.71C389.407 301.458 388.022 300.084 386.76 298.6C388.376 299.693 389.88 300.942 391.25 302.33C392.44 303.42 393.48 304.45 394.19 305.23C394.478 305.546 394.745 305.88 394.99 306.23C395.058 306.332 395.112 306.443 395.15 306.56C395.18 306.67 395.05 306.68 395.07 306.65Z" fill="#EBEBEB"/>
<path d="M247.31 303.52H217.07V306.81H247.31V303.52Z" fill="#FAFAFA"/>
<path d="M124.35 268.53V306.78H190.1L124.35 268.53ZM134.44 283.93L161.77 300.11H134.44V283.93Z" fill="#EBEBEB"/>
<path d="M130.66 272.2C130.438 273.056 130.047 273.858 129.51 274.56C129.113 275.348 128.57 276.054 127.91 276.64C128.136 275.784 128.531 274.982 129.07 274.28C129.83 273.06 130.54 272.12 130.66 272.2Z" fill="#E0E0E0"/>
<path d="M140.42 277.81C140.196 278.646 139.805 279.429 139.27 280.11C138.52 281.3 137.81 282.2 137.69 282.11C137.914 281.279 138.302 280.5 138.83 279.82C139.59 278.64 140.3 277.73 140.42 277.81Z" fill="#E0E0E0"/>
<path d="M150.17 283.42C149.862 284.224 149.397 284.959 148.8 285.58C147.92 286.69 147.12 287.51 147.01 287.42C147.322 286.615 147.791 285.881 148.39 285.26C149.26 284.16 150.06 283.33 150.17 283.42Z" fill="#E0E0E0"/>
<path d="M159.75 289.25C159.87 289.34 159.25 290.31 158.38 291.42C157.51 292.53 156.7 293.34 156.59 293.25C156.906 292.448 157.375 291.714 157.97 291.09C158.84 290 159.64 289.17 159.75 289.25Z" fill="#E0E0E0"/>
<path d="M169.77 295C169.501 295.842 169.069 296.624 168.5 297.3C167.69 298.5 166.93 299.4 166.81 299.3C167.078 298.459 167.506 297.678 168.07 297C168.89 295.81 169.65 294.91 169.77 295Z" fill="#E0E0E0"/>
<path d="M180.17 301C179.949 301.8 179.564 302.546 179.04 303.19C178.3 304.32 177.6 305.19 177.48 305.1C177.698 304.298 178.083 303.552 178.61 302.91C179.35 301.8 180.05 301 180.17 301Z" fill="#E0E0E0"/>
<path d="M133.71 274C133.83 274.08 133.62 274.63 133.24 275.24C132.86 275.85 132.46 276.29 132.33 276.24C132.2 276.19 132.42 275.61 132.8 275C133.18 274.39 133.58 273.89 133.71 274Z" fill="#E0E0E0"/>
<path d="M136.9 275.75C137.03 275.83 136.82 276.39 136.44 277C136.06 277.61 135.65 278 135.53 278C135.41 278 135.62 277.37 136 276.76C136.38 276.15 136.78 275.68 136.9 275.75Z" fill="#E0E0E0"/>
<path d="M144 279.93C144.12 280.01 143.91 280.57 143.53 281.18C143.15 281.79 142.75 282.18 142.63 282.18C142.51 282.18 142.71 281.55 143.09 280.94C143.47 280.33 143.89 279.86 144 279.93Z" fill="#E0E0E0"/>
<path d="M147.21 281.72C147.34 281.79 147.13 282.35 146.75 282.96C146.37 283.57 145.97 283.96 145.84 283.96C145.71 283.96 145.93 283.33 146.31 282.72C146.69 282.11 147.09 281.64 147.21 281.72Z" fill="#E0E0E0"/>
<path d="M153.64 285.7C153.76 285.78 153.56 286.33 153.18 286.94C152.8 287.55 152.39 287.99 152.27 287.94C152.15 287.89 152.36 287.31 152.73 286.7C153.1 286.09 153.52 285.63 153.64 285.7Z" fill="#E0E0E0"/>
<path d="M156.69 287.49C156.81 287.56 156.61 288.12 156.23 288.73C155.85 289.34 155.44 289.73 155.32 289.73C155.2 289.73 155.41 289.09 155.79 288.48C156.17 287.87 156.57 287.41 156.69 287.49Z" fill="#E0E0E0"/>
<path d="M163.28 291.29C163.4 291.36 163.19 291.92 162.81 292.53C162.43 293.14 162.03 293.53 161.9 293.53C161.77 293.53 161.99 292.89 162.37 292.28C162.75 291.67 163.15 291.21 163.28 291.29Z" fill="#E0E0E0"/>
<path d="M166.81 293.37C166.93 293.45 166.73 294 166.35 294.61C165.97 295.22 165.56 295.66 165.44 295.61C165.32 295.56 165.53 294.98 165.9 294.37C166.27 293.76 166.69 293.29 166.81 293.37Z" fill="#E0E0E0"/>
<path d="M173.17 297.09C173.29 297.17 173.08 297.73 172.71 298.34C172.34 298.95 171.92 299.34 171.8 299.34C171.68 299.34 171.88 298.71 172.26 298.1C172.64 297.49 173.05 297 173.17 297.09Z" fill="#E0E0E0"/>
<path d="M176.84 299.2C176.96 299.27 176.76 299.83 176.38 300.44C176 301.05 175.59 301.44 175.47 301.44C175.35 301.44 175.56 300.8 175.93 300.19C176.3 299.58 176.72 299.12 176.84 299.2Z" fill="#E0E0E0"/>
<path d="M441.92 381.32C447.06 378.67 453.12 378.32 458.82 379.27C461.89 379.78 465.09 380.69 467.18 383C469.27 385.31 469.66 389.36 467.26 391.34C465.84 392.52 463.85 392.7 462 392.67C457.53 392.62 452.57 391.83 449 394.52C447 396.06 445.6 398.61 443.17 399.36C441.951 399.644 440.674 399.523 439.53 399.016C438.386 398.509 437.438 397.643 436.83 396.55C435.672 394.307 435.418 391.705 436.12 389.28C436.409 387.596 437.083 386.002 438.089 384.622C439.095 383.241 440.406 382.111 441.92 381.32Z" fill="#EBEBEB"/>
<path d="M430.13 358.58C433.28 363.07 439.39 361.58 442.22 358.84C445.05 356.1 446.22 352.13 447.35 348.34C449.84 339.68 452.35 330.6 450.5 321.78C450.051 319.109 448.878 316.612 447.11 314.56C446.212 313.549 445.064 312.792 443.781 312.365C442.498 311.939 441.125 311.858 439.8 312.13C436.72 312.94 434.8 315.96 433.42 318.83C429.344 327.31 427.206 336.591 427.16 346C427.16 350.38 427.66 355 430.16 358.58" fill="#EBEBEB"/>
<path d="M421.5 365C424.91 361 425.56 355 424.04 350C422.52 345 419.04 340.61 415.13 337.08C410.475 332.938 405.057 329.742 399.18 327.67C396.905 326.753 394.46 326.337 392.01 326.45C390.789 326.523 389.605 326.893 388.559 327.527C387.514 328.162 386.639 329.041 386.01 330.09C384.33 333.3 385.94 337.18 387.68 340.35C390.748 345.934 394.253 351.267 398.16 356.3C401.3 360.35 404.89 364.3 409.68 366.17C414.47 368.04 419.44 367.79 421.97 364.47" fill="#EBEBEB"/>
<path d="M429.92 426.33C430.082 425.675 430.176 425.004 430.2 424.33C430.35 422.85 430.53 420.98 430.75 418.76C431.028 416.017 431.445 413.29 432 410.59C432.739 407.301 433.742 404.077 435 400.95C436.22 397.826 437.877 394.89 439.92 392.23C441.588 390.064 443.716 388.294 446.15 387.05C447.798 386.229 449.567 385.679 451.39 385.42C452.065 385.389 452.735 385.288 453.39 385.12C452.705 385.049 452.015 385.049 451.33 385.12C449.437 385.266 447.585 385.747 445.86 386.54C443.3 387.755 441.052 389.54 439.29 391.76C437.16 394.459 435.441 397.458 434.19 400.66C432.923 403.838 431.936 407.12 431.24 410.47C430.712 413.202 430.348 415.964 430.15 418.74C429.98 421.1 429.91 423.02 429.88 424.34C429.823 425.003 429.836 425.67 429.92 426.33Z" fill="#E0E0E0"/>
<path d="M430.3 422.05C430.359 421.737 430.379 421.418 430.36 421.1C430.36 420.39 430.36 419.49 430.36 418.39C430.36 416.04 430.36 412.64 430.48 408.44C430.69 400.04 431.41 391 432.81 378.26C434.13 366.26 435.91 352.32 437.81 343.26C438.21 341.19 438.62 339.34 439 337.71C439.38 336.08 439.67 334.71 440 333.54L440.64 330.91C440.73 330.607 440.784 330.295 440.8 329.98C440.654 330.262 440.544 330.561 440.47 330.87C440.27 331.55 440.01 332.41 439.69 333.46C439.37 334.51 438.98 335.98 438.57 337.6C438.16 339.22 437.7 341.07 437.26 343.13C434.93 353.855 433.174 364.697 432 375.61C430.6 388.38 430 400.01 429.92 408.43C429.87 412.64 429.92 416.05 430.06 418.43C430.13 419.53 430.19 420.43 430.23 421.14C430.228 421.445 430.251 421.749 430.3 422.05Z" fill="#E0E0E0"/>
<path d="M430.36 399.62C430.436 398.678 430.436 397.732 430.36 396.79C430.202 394.224 429.912 391.667 429.49 389.13C428.872 385.376 428.041 381.66 427 378C425.787 373.48 424.225 369.06 422.33 364.78C419.092 356.891 414.447 349.657 408.62 343.43C407.604 342.367 406.525 341.365 405.39 340.43C404.9 340.01 404.46 339.6 404.01 339.27L402.76 338.4C402.01 337.829 401.214 337.321 400.38 336.88C400.25 337.06 403.76 339.13 408.19 343.88C413.822 350.163 418.343 357.359 421.56 365.16C423.416 369.413 424.983 373.786 426.25 378.25C427.321 381.89 428.208 385.581 428.91 389.31C429.49 392.49 429.83 395.1 430.03 396.9C430.071 397.814 430.181 398.723 430.36 399.62Z" fill="#E0E0E0"/>
<path d="M408.68 439.18L410.93 469.97H450.48L452.73 439.18H408.68Z" fill="#E0E0E0"/>
<path d="M457.45 427.05H404.86V439.19H457.45V427.05Z" fill="#E0E0E0"/>
<path d="M404.86 468.8V472.16H407.33H456.58V468.8H404.86Z" fill="#EBEBEB"/>
<path d="M409.75 478.08L407.33 472.16H454.7L451.87 478.08H409.75Z" fill="#E0E0E0"/>
<path d="M452 449.25C451.945 449.349 451.881 449.443 451.81 449.53C451.66 449.74 451.46 450 451.22 450.31L448.92 453.26L448.82 453.39L448.72 453.26L443.05 445.43H443.38L437.81 453.32L437.63 453.57L437.44 453.33L430.83 445.47H431.21L430.84 445.93L424.93 453.34L424.74 453.59L424.55 453.33L419 445.43H419.32C416.57 448.56 414.24 451.21 412.46 453.25L412.33 453.39L412.24 453.23L410.09 449.62L409.54 448.62C409.473 448.512 409.416 448.399 409.37 448.28C409.37 448.28 409.46 448.37 409.6 448.58L410.21 449.51L412.47 453.05H412.25L419.01 445.13L419.18 444.93L419.34 445.14L424.96 453H424.58L430.48 445.58L430.84 445.13L431.03 444.89L431.22 445.12L437.82 453H437.45L443.07 445.14L443.24 444.91L443.4 445.14L448.94 453.06H448.74L451.14 450.19L451.78 449.45C451.927 449.31 452 449.243 452 449.25Z" fill="#F5F5F5"/>
<path d="M453.28 439C453.28 439.14 443.37 439.25 431.15 439.25C418.93 439.25 409 439.12 409 439C409 438.88 418.91 438.75 431.14 438.75C443.37 438.75 453.28 438.84 453.28 439Z" fill="#F5F5F5"/>
<path d="M455.28 472.49C455.28 472.63 444.51 472.74 431.22 472.74C417.93 472.74 407.17 472.63 407.17 472.49C407.17 472.35 417.94 472.25 431.22 472.25C444.5 472.25 455.28 472.36 455.28 472.49Z" fill="#F5F5F5"/>
<path d="M130.63 49.1C130.63 49.1 139.53 90.1 145.35 89.88C152.87 89.55 178.19 55 178.19 55C178.19 55 134.84 49.76 130.63 49.1Z" fill="#F5F5F5"/>
<path d="M182.9 55.61C182.9 55.61 196 95.77 201.79 95.07C209.25 94.16 230.92 57.84 230.92 57.84C230.92 57.84 187.17 55.94 182.9 55.61Z" fill="#EBEBEB"/>
<path d="M235.61 57.8201C235.61 57.8201 252.86 96.7701 258.54 95.6201C265.88 94.1401 283.7 56.3101 283.7 56.3101C283.7 56.3101 239.9 57.8101 235.61 57.8201Z" fill="#F5F5F5"/>
<path d="M285.89 56.35C285.89 56.35 305.76 94.35 311.36 92.92C318.58 91.07 333.81 52.41 333.81 52.41C333.81 52.41 290.17 56.13 285.89 56.35Z" fill="#EBEBEB"/>
<path d="M336.75 51.2801C336.75 51.2801 361.08 87.2801 366.48 85.3501C373.48 82.8601 383.98 43.0801 383.98 43.0801C383.98 43.0801 341 50.6801 336.75 51.2801Z" fill="#F5F5F5"/>
<path d="M386.71 42.4C386.71 42.4 414.13 76.68 419.35 74.4C426.09 71.47 433.11 31.13 433.11 31.13C433.11 31.13 390.88 41.52 386.71 42.4Z" fill="#EBEBEB"/>
<path d="M79.8 38.92C79.8 38.92 84.92 80.45 90.8 80.6C98.32 80.78 126.7 48.07 126.7 48.07C126.7 48.07 83.94 39.86 79.8 38.92Z" fill="#EBEBEB"/>
<path d="M478.23 17.41L477.11 17.82L473.79 19L468.38 20.91L464.93 22.12L460.93 23.42L451.6 26.42L440.4 29.79C438.4 30.42 436.29 30.99 434.13 31.59L427.43 33.44C426.28 33.76 425.12 34.09 423.93 34.44L420.31 35.36L412.79 37.27C388.57 43.2061 364.052 47.8526 339.34 51.19C325.34 53.02 310.6 54.6 295.26 55.75C279.92 56.9 264 57.48 247.7 57.61H235.53L223.53 57.36L220.53 57.3L217.53 57.17L211.65 56.93L205.81 56.69L200.03 56.33C196.2 56.07 192.39 55.89 188.63 55.57L177.47 54.63C173.79 54.31 170.17 53.87 166.57 53.51L161.28 53L156 52.28C142 50.62 128.82 48.37 116.52 46.19C104.27 43.83 92.9 41.45 82.64 38.89L75.13 37C72.68 36.41 70.34 35.72 68.04 35.11C63.46 33.86 59.12 32.72 55.13 31.48C51.14 30.24 47.38 29.24 44 28.15L34.71 25.15C33.32 24.69 31.99 24.28 30.77 23.84L27.34 22.62L22 20.66L18.7 19.48L17.58 19.06C17.58 19.06 17.97 19.18 18.72 19.44L22 20.59L27.39 22.47L30.82 23.67C32.05 24.1 33.38 24.5 34.77 24.96L44.07 27.96C47.47 29 51.22 30.1 55.22 31.3C59.22 32.5 63.55 33.65 68.13 34.9C70.43 35.5 72.77 36.19 75.22 36.77L82.73 38.61C92.99 41.14 104.36 43.5 116.61 45.85C128.91 48.02 142.08 50.25 156.07 51.85L161.34 52.52L166.69 53.09C170.28 53.45 173.91 53.88 177.59 54.2L188.74 55.13C192.49 55.46 196.3 55.63 200.13 55.88L205.9 56.24L211.74 56.48L217.62 56.73L220.57 56.85L223.57 56.91L235.57 57.16H247.7C264 57.03 279.92 56.37 295.25 55.31C310.58 54.25 325.32 52.59 339.31 50.78C364.008 47.4788 388.516 42.8791 412.73 37L420.25 35.11L423.87 34.2L427.37 33.2L434.07 31.36C436.23 30.76 438.34 30.2 440.34 29.58L451.55 26.24L460.9 23.24L464.9 21.96L468.36 20.77L473.78 18.9L477.12 17.75L478.23 17.41Z" fill="#455A64"/>
<path d="M58.48 33.37C57.23 33.01 56.01 32.65 54.81 32.27L50.7 31.05C48.22 30.31 45.86 29.61 43.65 28.9L32.89 25.38C32.02 25.1 31.19 24.83 30.39 24.55L18.3 20.22L17.15 19.79L17.86 18.31L19.03 18.69L31.17 22.93C31.95 23.2 32.77 23.46 33.62 23.73L44.39 27.21C46.56 27.89 48.87 28.57 51.29 29.29L55.53 30.54C58.63 31.54 61.93 32.38 65.43 33.32L68.43 34.13L70.9 34.8C72.4 35.21 73.9 35.62 75.48 36L83 37.84C92.29 40.13 103 42.43 116.83 45.07C128.4 47.07 141.95 49.42 156.21 51.07L166.82 52.3L170.64 52.7C172.97 52.95 175.32 53.2 177.69 53.41L188.84 54.34C191.26 54.55 193.69 54.7 196.14 54.84C197.5 54.92 198.85 55 200.22 55.1L211.8 55.69L223.58 56.12L235.58 56.36H247.7C263.31 56.24 279.29 55.61 295.18 54.51C309.39 53.45 324.18 51.93 339.18 49.98C363.84 46.6609 388.311 42.0546 412.49 36.18L429.11 31.88L434.68 30.35C436.53 29.85 438.32 29.35 440.04 28.83L451.27 25.48L468 20.05L476.76 17.05L477.93 16.66L478.62 18.15L477.47 18.57L461.3 24.18L451.96 27.18L440.74 30.56C439 31.1 437.18 31.56 435.3 32.12L426.53 34.55C425.77 34.76 425.01 34.98 424.24 35.18L413.08 38C388.819 43.9546 364.262 48.6277 339.51 52C324.51 54 309.62 55.5 295.36 56.57C279.42 57.68 263.36 58.31 247.7 58.44H235.52L205.82 57.52L200.02 57.16C198.64 57.06 197.28 56.98 195.92 56.9C193.46 56.75 191.02 56.61 188.59 56.39L177.44 55.46C175.03 55.24 172.66 54.99 170.3 54.73L166.52 54.33L155.86 53.09C141.5 51.39 127.93 49.09 116.33 47C102.51 44.33 91.73 42 82.38 39.68L74.86 37.83C73.27 37.45 71.71 37.02 70.18 36.6L67.76 35.94L64.82 35.14C62.63 34.52 60.52 34 58.48 33.37Z" fill="#E0E0E0"/>
<path d="M79.72 257.59H23.15V316.56H79.72V257.59Z" fill="#E0E0E0"/>
<path d="M75.89 257.59H19.32V316.56H75.89V257.59Z" fill="#FAFAFA"/>
<path d="M75.91 316.58H19.3V257.58H75.91V316.58ZM19.34 316.58H75.87V257.61H19.34V316.58Z" fill="#E0E0E0"/>
<path d="M68.28 265.52H26.92V308.64H68.28V265.52Z" fill="white"/>
<path d="M26.92 308.92C26.6364 309.356 26.3006 309.755 25.92 310.11C25.26 310.81 24.33 311.75 23.29 312.78C22.25 313.81 21.29 314.71 20.59 315.36C20.231 315.736 19.8319 316.071 19.4 316.36C19.6796 315.924 20.0159 315.527 20.4 315.18C21.06 314.48 21.99 313.53 23.04 312.51C24.09 311.49 25.04 310.56 25.74 309.91C26.0966 309.538 26.4922 309.207 26.92 308.92Z" fill="#E0E0E0"/>
<path d="M68.28 308.82C68.7159 309.104 69.1156 309.439 69.47 309.82C70.17 310.48 71.11 311.41 72.14 312.45C73.17 313.49 74.07 314.45 74.72 315.15C75.0957 315.509 75.431 315.908 75.72 316.34C75.2841 316.06 74.8873 315.724 74.54 315.34C73.84 314.68 72.89 313.75 71.87 312.7C70.85 311.65 69.87 310.7 69.27 310C68.9022 309.64 68.5706 309.245 68.28 308.82Z" fill="#E0E0E0"/>
<path d="M68.17 265.64C68.4575 265.207 68.793 264.808 69.17 264.45C69.83 263.75 70.76 262.81 71.8 261.78C72.84 260.75 73.8 259.85 74.5 259.2C74.861 258.822 75.2635 258.487 75.7 258.2C75.4135 258.631 75.0779 259.027 74.7 259.38C74.04 260.08 73.11 261.03 72.07 262.05C71.03 263.07 70.07 264 69.36 264.65C68.9994 265.021 68.6005 265.353 68.17 265.64Z" fill="#E0E0E0"/>
<path d="M26.81 265.74C26.377 265.452 25.9778 265.117 25.62 264.74C24.93 264.08 23.98 263.15 22.96 262.11C21.94 261.07 21.02 260.11 20.37 259.41C19.9858 259.055 19.6496 258.652 19.37 258.21C19.7961 258.503 20.1915 258.838 20.55 259.21C21.24 259.87 22.19 260.8 23.22 261.84C24.25 262.88 25.16 263.84 25.81 264.55C26.1893 264.906 26.525 265.305 26.81 265.74Z" fill="#E0E0E0"/>
<path d="M68.17 308.64C68.17 308.64 68.17 308.56 68.17 308.43C68.17 308.3 68.17 308.08 68.17 307.83C68.17 307.28 68.17 306.51 68.17 305.5C68.17 303.5 68.17 300.5 68.17 296.71C68.17 289.16 68.17 278.4 68.09 265.52L68.25 265.68H27.01L27.2 265.5C27.2 281.33 27.2 296.13 27.2 308.62L27.04 308.46L56.91 308.54H65.3H67.52H65.33H56.98L26.98 308.62H26.83V308.47C26.83 295.98 26.83 281.18 26.83 265.35V265.17H27.02H68.26H68.42V265.33C68.42 278.25 68.36 289.05 68.34 296.62C68.34 300.38 68.34 303.34 68.34 305.37C68.34 306.37 68.34 307.14 68.34 307.67C68.34 307.92 68.34 308.11 68.34 308.25C68.3037 308.388 68.2463 308.519 68.17 308.64Z" fill="#E0E0E0"/>
<path d="M55.17 287.16C55.17 288.475 54.78 289.761 54.0493 290.855C53.3186 291.948 52.28 292.8 51.0648 293.304C49.8497 293.807 48.5126 293.939 47.2226 293.682C45.9327 293.426 44.7478 292.792 43.8177 291.862C42.8877 290.932 42.2544 289.747 41.9978 288.457C41.7412 287.167 41.8729 285.83 42.3762 284.615C42.8795 283.4 43.7319 282.361 44.8255 281.631C45.919 280.9 47.2048 280.51 48.52 280.51C49.3937 280.509 50.259 280.68 51.0664 281.014C51.8738 281.347 52.6074 281.837 53.2252 282.455C53.843 283.073 54.3328 283.806 54.6665 284.614C55.0002 285.421 55.1713 286.286 55.17 287.16Z" fill="#E0E0E0"/>
<path d="M40.23 188.54C40.23 188.54 40.23 188.38 40.31 188.07C40.39 187.76 40.48 187.3 40.6 186.72C40.86 185.51 41.25 183.77 41.74 181.54C42.74 177.01 44.24 170.54 46.06 162.46L60.53 99.41L60.79 98.3L61 99.41L61.32 100.81C66.95 125.81 72.05 148.46 75.74 164.87C77.56 173.06 79.03 179.69 80.05 184.3C80.55 186.58 80.93 188.3 81.2 189.58C81.32 190.17 81.42 190.58 81.49 190.96C81.56 191.34 81.57 191.44 81.57 191.44C81.57 191.44 81.51 191.28 81.43 190.97L81.1 189.61C80.81 188.38 80.39 186.61 79.86 184.34C78.79 179.74 77.27 173.12 75.38 164.95C71.65 148.55 66.5 125.95 60.81 100.95L60.49 99.55H61L46.38 162.55L41.9 181.55C41.37 183.78 40.95 185.55 40.66 186.72C40.52 187.29 40.4 187.72 40.32 188.06C40.24 188.4 40.23 188.54 40.23 188.54Z" fill="#263238"/>
<path d="M40.22 207.27V191.44H82.45V207.27C82.45 209.691 81.9726 212.089 81.045 214.326C80.1174 216.563 78.7579 218.595 77.0443 220.305C75.3307 222.016 73.2965 223.372 71.0582 224.296C68.82 225.22 66.4215 225.694 64 225.69H58.65C53.7638 225.69 49.0776 223.75 45.6216 220.295C42.1655 216.841 40.2227 212.156 40.22 207.27Z" fill="#455A64"/>
<path d="M40.22 191.44C40.3999 191.645 40.5606 191.866 40.7 192.1L41.99 194.1L46.64 201.36L61.83 225.42L61.94 225.59H61.5C67.24 216.15 72.44 207.59 76.23 201.4L80.74 194.1L81.99 192.1C82.1282 191.87 82.2819 191.649 82.45 191.44C82.3499 191.691 82.226 191.932 82.08 192.16L80.91 194.16C79.85 195.94 78.37 198.45 76.54 201.54C72.78 207.78 67.64 216.34 61.94 225.81L61.72 226.17L61.5 225.81L61.39 225.64L46.33 201.52L41.82 194.17L40.61 192.17C40.464 191.935 40.3337 191.692 40.22 191.44Z" fill="#263238"/>
<path d="M65.53 99.27C65.53 100.182 65.2596 101.073 64.7531 101.831C64.2465 102.589 63.5265 103.18 62.6842 103.529C61.8418 103.878 60.9149 103.969 60.0206 103.791C59.1264 103.614 58.305 103.175 57.6602 102.53C57.0155 101.885 56.5765 101.064 56.3986 100.169C56.2207 99.2752 56.312 98.3482 56.6609 97.5059C57.0098 96.6635 57.6007 95.9435 58.3588 95.437C59.1169 94.9304 60.0082 94.66 60.92 94.66C61.5258 94.6587 62.1258 94.7771 62.6857 95.0083C63.2456 95.2395 63.7544 95.579 64.1827 96.0073C64.611 96.4357 64.9506 96.9444 65.1818 97.5043C65.413 98.0642 65.5313 98.6643 65.53 99.27Z" fill="#263238"/>
<path d="M60.92 20.78C61.06 20.78 61.18 38.55 61.18 60.46C61.18 82.37 61.06 100.14 60.92 100.14C60.78 100.14 60.66 82.37 60.66 60.46C60.66 38.55 60.77 20.78 60.92 20.78Z" fill="#263238"/>
<path d="M63.31 227.41C63.31 227.806 63.1927 228.192 62.9729 228.521C62.7532 228.85 62.4408 229.107 62.0754 229.258C61.7099 229.409 61.3078 229.449 60.9198 229.372C60.5319 229.295 60.1755 229.104 59.8958 228.824C59.6161 228.545 59.4256 228.188 59.3484 227.8C59.2713 227.412 59.3109 227.01 59.4622 226.645C59.6136 226.279 59.87 225.967 60.1989 225.747C60.5278 225.527 60.9144 225.41 61.31 225.41C61.8404 225.41 62.3491 225.621 62.7242 225.996C63.0993 226.371 63.31 226.88 63.31 227.41Z" fill="#263238"/>
<path d="M60.46 228.15L60.78 227.99C60.2195 228.347 59.748 228.827 59.4014 229.394C59.0548 229.96 58.8422 230.599 58.78 231.26C58.6649 232.579 58.7765 233.909 59.11 235.19C59.2 235.6 59.42 236.11 59.84 236.09C60.26 236.07 60.4 235.62 60.46 235.24C60.59 234.457 60.6102 233.659 60.52 232.87C60.4719 233.885 60.7994 234.882 61.44 235.67C61.56 235.82 61.74 235.98 61.93 235.93C62.12 235.88 62.18 235.67 62.23 235.49C62.4078 234.837 62.5085 234.166 62.53 233.49C62.575 234.09 62.7939 234.663 63.16 235.14C63.254 235.254 63.3702 235.347 63.5014 235.414C63.6327 235.481 63.7763 235.52 63.9234 235.529C64.0705 235.539 64.2179 235.518 64.3566 235.468C64.4953 235.418 64.6224 235.341 64.73 235.24C64.8329 235.069 64.9009 234.88 64.9301 234.682C64.9593 234.485 64.9491 234.284 64.9 234.09C64.5668 231.725 63.6147 229.489 62.14 227.61" fill="#263238"/>
<path d="M42.88 191.44C42.88 191.44 23.88 169.56 26.01 168.77C28.14 167.98 45 180.1 45 180.1C45 180.1 30.5 147.69 33.4 145.32C36.3 142.95 51.58 174 51.58 174C51.58 174 49.2 128.68 51.58 128.15C53.96 127.62 62.64 173.48 62.64 173.48C62.64 173.48 75.56 131.58 79.24 131.58C82.92 131.58 75.29 171.9 75.29 171.9C75.29 171.9 90.58 146.11 93 149.54C95.42 152.97 82.14 180.9 82.14 180.9C82.14 180.9 101.38 164.82 102.14 166.9C102.9 168.98 81.32 191.41 81.32 191.41L42.88 191.44Z" fill="#115E59"/>
<path d="M40.23 158.5C40.36 158.44 43.73 165.65 47.75 174.61C51.77 183.57 54.92 190.88 54.75 190.94C54.58 191 51.25 183.78 47.23 174.82C43.21 165.86 40.1 158.56 40.23 158.5Z" fill="#263238"/>
<path d="M55.56 162.53C55.7 162.53 56.26 168.88 56.81 176.73C57.36 184.58 57.68 190.96 57.54 190.97C57.4 190.98 56.84 184.62 56.29 176.77C55.74 168.92 55.42 162.54 55.56 162.53Z" fill="#263238"/>
<path d="M76.7 142.23C76.6881 142.404 76.6511 142.576 76.59 142.74C76.4833 143.127 76.3433 143.607 76.17 144.18C75.78 145.5 75.24 147.29 74.59 149.46C73.25 153.92 71.45 160.1 69.59 166.96C67.73 173.82 66.24 180.07 65.18 184.6C64.66 186.81 64.24 188.6 63.93 189.97C63.78 190.55 63.67 191.03 63.57 191.43C63.5378 191.603 63.484 191.771 63.41 191.93C63.4028 191.751 63.423 191.573 63.47 191.4C63.54 191.01 63.62 190.52 63.73 189.93C63.96 188.65 64.34 186.8 64.82 184.52C65.82 179.96 67.25 173.69 69.08 166.82C70.91 159.95 72.78 153.82 74.2 149.35C74.92 147.14 75.52 145.35 75.95 144.12C76.16 143.55 76.32 143.12 76.46 142.71C76.5144 142.538 76.5954 142.376 76.7 142.23Z" fill="#263238"/>
<path d="M85.84 165.59C85.96 165.67 82.26 171.2 77.57 177.92C72.88 184.64 69 190 68.87 190C68.74 190 72.46 184.4 77.15 177.67C81.84 170.94 85.73 165.51 85.84 165.59Z" fill="#263238"/>
<path d="M49.28 191C48.6747 190.685 48.1161 190.288 47.62 189.82C46.3535 188.763 45.145 187.638 44 186.45C42.8534 185.28 41.7718 184.048 40.76 182.76C40.2996 182.255 39.9155 181.686 39.62 181.07C39.74 180.98 41.71 183.36 44.38 186.07C47.05 188.78 49.38 190.85 49.28 191Z" fill="#263238"/>
<path d="M60.81 182.28C61.199 183.754 61.4237 185.267 61.48 186.79C61.709 188.299 61.7593 189.829 61.63 191.35C61.2387 189.876 61.014 188.364 60.96 186.84C60.7312 185.331 60.6808 183.801 60.81 182.28Z" fill="#263238"/>
<path d="M82.45 201.3C81.9172 201.459 81.3719 201.573 80.82 201.64C79.82 201.82 78.23 202.06 76.33 202.33C71.3821 203.021 66.4024 203.462 61.41 203.65C56.4015 203.84 51.3857 203.633 46.41 203.03C44.51 202.78 42.98 202.53 41.93 202.31C41.3798 202.226 40.8379 202.096 40.31 201.92C40.8642 201.939 41.4159 202.003 41.96 202.11C43.02 202.27 44.56 202.46 46.46 202.66C51.4135 203.157 56.3951 203.314 61.37 203.13C67.2 202.93 72.47 202.39 76.27 201.96L80.77 201.44C81.3243 201.34 81.8868 201.293 82.45 201.3Z" fill="white"/>
<path d="M82.45 206C81.9188 206.165 81.3729 206.279 80.82 206.34C79.82 206.53 78.23 206.77 76.33 207.03C72.54 207.55 67.26 208.15 61.41 208.36C56.4012 208.543 51.3858 208.332 46.41 207.73C44.51 207.48 42.98 207.23 41.93 207.01C41.3798 206.927 40.8379 206.796 40.31 206.62C40.8637 206.646 41.4149 206.709 41.96 206.81C43.02 206.97 44.56 207.17 46.46 207.36C51.4135 207.857 56.3951 208.014 61.37 207.83C67.2 207.63 72.47 207.09 76.27 206.66L80.77 206.14C81.326 206.054 81.8874 206.007 82.45 206Z" fill="white"/>
<path d="M374.81 93.8301C368.611 93.8288 362.527 95.5051 357.203 98.6814C351.879 101.858 347.514 106.415 344.571 111.871C341.628 117.327 340.216 123.478 340.485 129.672C340.754 135.865 342.695 141.87 346.1 147.05L341.1 159.64L354.1 155.64C358.449 158.924 363.516 161.127 368.884 162.066C374.252 163.005 379.766 162.654 384.972 161.042C390.177 159.43 394.925 156.602 398.822 152.794C402.719 148.985 405.655 144.303 407.386 139.136C409.118 133.969 409.595 128.464 408.779 123.076C407.963 117.688 405.878 112.572 402.694 108.149C399.511 103.726 395.321 100.123 390.471 97.6387C385.621 95.1542 380.249 93.8591 374.8 93.8601L374.81 93.8301Z" fill="#FAFAFA"/>
<path d="M383.4 134.55H378.65C378.659 135.093 378.556 135.633 378.35 136.135C378.143 136.637 377.836 137.092 377.448 137.472C377.059 137.852 376.598 138.149 376.091 138.345C375.584 138.54 375.043 138.631 374.5 138.61C373.701 138.64 372.912 138.419 372.245 137.977C371.578 137.536 371.066 136.897 370.78 136.15C370.528 135.527 370.427 134.853 370.486 134.184C370.545 133.515 370.762 132.869 371.12 132.3C371.92 130.98 373.69 129.77 376.89 130.3V119.61H372.19V125.89C370.257 126.46 368.564 127.65 367.373 129.276C366.183 130.902 365.559 132.875 365.6 134.89C365.6 141.84 371.83 143.46 374.5 143.46C376.54 143.43 383.49 142.93 383.4 134.55Z" fill="#115E59"/>
<path d="M372.13 117.4H376.9V112.94H372.13V117.4Z" fill="#115E59"/>
<path d="M409.44 128.19C409.458 127.987 409.458 127.783 409.44 127.58C409.44 127.15 409.44 126.58 409.39 125.82C409.39 125.43 409.39 124.99 409.33 124.51C409.27 124.03 409.19 123.51 409.11 122.95C409.03 122.39 408.94 121.78 408.85 121.13C408.76 120.48 408.52 119.82 408.35 119.13C407.467 115.633 406.014 112.305 404.05 109.28C401.205 104.793 397.369 101.018 392.838 98.2445C388.307 95.4709 383.2 93.7726 377.91 93.28C376.327 93.1446 374.737 93.1146 373.15 93.19C372.34 93.19 371.52 93.19 370.71 93.34L368.25 93.71C364.88 94.327 361.618 95.4355 358.57 97C351.95 100.376 346.593 105.793 343.29 112.45C341.507 115.93 340.353 119.698 339.88 123.58C339.73 124.573 339.646 125.576 339.63 126.58C339.555 127.578 339.535 128.58 339.57 129.58C339.66 131.597 339.914 133.604 340.33 135.58C341.233 139.857 342.929 143.927 345.33 147.58V147.22C343.66 151.36 342.03 155.43 340.44 159.4L340.15 160.12L340.9 159.91L353.9 156.33L353.58 156.27C357.96 159.577 363.058 161.804 368.46 162.77C370.975 163.236 373.537 163.397 376.09 163.25C377.317 163.22 378.54 163.103 379.75 162.9L381.53 162.62C382.11 162.51 382.68 162.34 383.25 162.2C391.257 160.159 398.281 155.344 403.07 148.61C404.856 146.122 406.289 143.4 407.33 140.52L407.99 138.7C408.14 138.1 408.28 137.52 408.42 136.97L408.82 135.38C408.91 134.88 408.97 134.38 409.04 133.93C409.15 133.01 409.31 132.2 409.35 131.49C409.39 130.78 409.35 130.2 409.41 129.7C409.47 129.2 409.41 128.89 409.41 128.61C409.421 128.487 409.421 128.363 409.41 128.24C409.378 128.357 409.362 128.478 409.36 128.6C409.36 128.88 409.31 129.24 409.27 129.69C409.23 130.14 409.2 130.78 409.15 131.47C409.1 132.16 408.92 132.98 408.79 133.89C407.643 140.498 404.605 146.631 400.044 151.548C395.482 156.464 389.593 159.952 383.09 161.59C382.53 161.72 381.97 161.89 381.39 162L379.64 162.26C378.453 162.458 377.253 162.565 376.05 162.58C373.546 162.718 371.035 162.554 368.57 162.09C363.284 161.124 358.3 158.928 354.02 155.68L353.87 155.57H353.7L340.7 159.12L341.15 159.64L346.06 147.46L346.13 147.27L346.02 147.1C342.576 141.865 340.619 135.791 340.36 129.53C340.325 128.553 340.345 127.575 340.42 126.6C340.43 125.629 340.51 124.66 340.66 123.7C341.126 119.905 342.257 116.223 344 112.82C345.657 109.529 347.813 106.513 350.39 103.88C352.918 101.41 355.788 99.3158 358.91 97.66C361.896 96.1103 365.093 95.0085 368.4 94.39L370.8 94.01C371.6 93.9 372.4 93.91 373.19 93.85C374.75 93.7779 376.313 93.8013 377.87 93.92C383.074 94.3872 388.104 96.0317 392.579 98.7291C397.054 101.427 400.857 105.106 403.7 109.49C405.669 112.464 407.145 115.736 408.07 119.18C408.26 119.89 408.44 120.56 408.6 121.18C408.76 121.8 408.81 122.42 408.9 122.98C408.99 123.54 409.08 124.05 409.15 124.52C409.22 124.99 409.22 125.43 409.25 125.82C409.3 126.56 409.35 127.14 409.38 127.58C409.383 127.785 409.403 127.989 409.44 128.19Z" fill="#263238"/>
<path d="M236.73 321.53C236.14 323.53 233.49 410.53 249.62 479.24L329.89 479.42C330.96 432.48 348.89 359.49 322.94 319.12L236.73 321.53Z" fill="#263238"/>
<path d="M317.76 155.46C320.41 165.1 324.42 172.82 328.33 176.7C332.24 180.58 336.42 185.12 336.28 190.62C336.22 192.78 335.5 195.07 336.45 197.02C337.67 199.54 340.94 200.09 343.39 201.47C345.167 202.569 346.616 204.128 347.582 205.981C348.548 207.834 348.996 209.913 348.88 212C348.586 216.18 346.747 220.101 343.72 223C340.72 226.06 335.86 228.2 332.08 226.11C329.8 224.85 328.5 222.39 327.35 220.05C321.397 207.937 316.01 195.57 311.19 182.95" fill="#263238"/>
<path d="M293.4 114.19C290.025 110.442 285.588 107.81 280.68 106.646C275.772 105.482 270.626 105.84 265.926 107.673C261.227 109.505 257.197 112.726 254.374 116.906C251.55 121.086 250.066 126.026 250.12 131.07C250.19 137.52 252.71 144.29 250.12 150.21C248.32 154.41 244.12 157.58 243.57 162.11C242.9 167.36 247.4 172.11 247.16 177.42C247.01 180.88 244.84 183.93 242.35 186.33C239.86 188.73 236.96 190.7 234.67 193.33C228.32 200.55 227.92 211.95 232.67 220.27C237.42 228.59 246.74 233.83 256.28 234.96C265.82 236.09 275.56 233.46 284.01 228.87C289.51 225.87 294.68 221.95 297.95 216.61C301.22 211.27 302.35 204.35 299.76 198.61" fill="#263238"/>
<path d="M263.12 110.3C264.546 110.273 265.973 110.34 267.39 110.5C270.785 111.119 274.116 112.05 277.34 113.28C280.615 114.513 284.091 115.127 287.59 115.09C288.648 115.039 289.696 114.858 290.71 114.55C291.086 114.447 291.449 114.3 291.79 114.11C290.412 114.463 289.001 114.677 287.58 114.75C284.131 114.689 280.718 114.036 277.49 112.82C274.241 111.579 270.868 110.687 267.43 110.16C266.376 110.063 265.314 110.063 264.26 110.16C263.875 110.153 263.492 110.2 263.12 110.3Z" fill="#455A64"/>
<path d="M343.9 229.42C343.818 228.184 343.654 226.954 343.41 225.74C342.356 220.791 340.112 216.174 336.873 212.287C333.634 208.4 329.497 205.36 324.82 203.43L300.67 193.24L273.07 193.95C273.07 193.95 252.56 203.32 248.43 208.2C248.12 208.56 245.37 211.28 245.19 212.34L224.42 274L197.87 290.55L205.15 299.83L244.29 296.12L249.03 288.41C246.44 294.22 236.11 317.79 236.11 325.01C236.11 325.01 296.52 337.94 320.57 335.52C331.15 334.45 333.66 333.46 333.66 333.46L326.6 307C332.45 306.6 338.43 303 340.83 298C345 289.33 344.65 241.06 343.9 229.42Z" fill="#115E59"/>
<path d="M155.34 238.61H151.18L156.88 292.42L206.08 289.04L200.53 242.71L155.34 238.61Z" fill="#E0E0E0"/>
<path d="M155.34 235.95L159.69 290.53L256.83 287.4L244.86 235.95L201.19 240.17L155.34 235.95Z" fill="#FAFAFA"/>
<path d="M155.34 236L156.12 236.06L158.47 236.26L167.57 237.04L201.21 240.04L244.88 235.78H245.09V235.98C248.78 251.78 252.83 269.17 257.09 287.43L257.16 287.74H256.84L252.26 287.88L159.71 290.8H159.51V290.6C158.22 273.84 157.17 260.18 156.43 250.69C156.08 245.98 155.8 242.31 155.62 239.79C155.527 238.563 155.457 237.623 155.41 236.97C155.41 236.33 155.41 235.97 155.41 235.97C155.41 235.97 155.41 236.32 155.5 236.97C155.59 237.62 155.65 238.59 155.75 239.83C155.97 242.36 156.28 246.04 156.68 250.77C157.46 260.23 158.58 273.84 159.96 290.53L159.75 290.35L252.3 287.35L256.89 287.21L256.64 287.52C252.4 269.27 248.37 251.88 244.7 236.07L244.95 236.25L201.28 240.41L167.79 237.23L158.66 236.35L156.27 236.11L155.34 236Z" fill="#263238"/>
<path d="M209.11 288.28C209.036 288.131 208.983 287.973 208.95 287.81C208.86 287.44 208.74 286.99 208.61 286.45C208.32 285.26 207.93 283.54 207.47 281.45C206.54 277.18 205.38 271.27 204.28 264.7C203.18 258.13 202.37 252.16 201.86 247.83C201.61 245.66 201.42 243.91 201.31 242.69C201.26 242.13 201.22 241.69 201.19 241.29C201.164 241.128 201.164 240.962 201.19 240.8C201.241 240.956 201.278 241.117 201.3 241.28C201.3 241.66 201.42 242.11 201.51 242.67C201.69 243.95 201.93 245.67 202.23 247.78C202.83 252.1 203.71 258.06 204.8 264.62C205.89 271.18 207 277.1 207.8 281.38C208.2 283.46 208.53 285.17 208.8 286.44C208.9 287 208.99 287.44 209.05 287.83C209.088 287.977 209.108 288.128 209.11 288.28Z" fill="#263238"/>
<path d="M183.61 254.55L184.55 273.55L180.15 273.77L179.38 258.27L175.57 258.46L175.4 255L183.61 254.55Z" fill="#115E59"/>
<path d="M236.25 267.83L236.61 271.4L222.28 272.84L222 270L228.62 262.36C230.14 260.59 230.34 259.59 230.25 258.66C230.1 257.18 228.98 256.41 226.98 256.61C226.218 256.66 225.479 256.894 224.827 257.293C224.176 257.692 223.631 258.244 223.24 258.9L219.84 257.17C220.591 255.92 221.639 254.875 222.892 254.128C224.145 253.381 225.563 252.956 227.02 252.89C231.24 252.46 234.28 254.35 234.62 257.79C234.81 259.63 234.46 261.36 232.05 264.09L228.11 268.65L236.25 267.83Z" fill="#115E59"/>
<path d="M195.66 301.3L186.66 294.7L187.15 279.7C188.158 279.918 189.074 280.443 189.772 281.202C190.47 281.961 190.917 282.917 191.05 283.94C191.42 287.46 191.73 290.8 191.73 290.8L194.56 291.65L194.17 289.7L201.05 279.9C201.05 279.9 203.66 281.83 202.57 284.37C203.82 283.15 205.8 284.16 205.57 285.29L206.05 282.62C206.05 282.62 209.18 281.69 209.05 284.86C209.045 286.129 208.921 287.394 208.68 288.64H219.61C219.61 288.64 216.45 293.98 214.61 295.43C212.77 296.88 196.18 301.38 196.18 301.38" fill="#FFBE9D"/>
<path d="M196.49 298.42C194.966 295.804 194.169 292.828 194.18 289.8C194.34 289.8 194.63 291.8 195.27 294.13C195.91 296.46 196.63 298.35 196.49 298.42Z" fill="#EB996E"/>
<path d="M200.13 296.1C199.601 294.161 199.236 292.181 199.04 290.18V290.09V290.01L199.21 289.72C200.181 287.835 201.305 286.032 202.57 284.33C201.751 286.288 200.778 288.177 199.66 289.98L199.49 290.27V290.11C199.869 292.086 200.083 294.089 200.13 296.1Z" fill="#EB996E"/>
<path d="M204.59 294.37C204.307 293.204 204.163 292.009 204.16 290.81V290.75C204.29 290.18 204.41 289.59 204.55 288.98C204.859 287.208 205.338 285.47 205.98 283.79C205.839 285.585 205.527 287.363 205.05 289.1L204.64 290.85V290.79C204.755 291.982 204.739 293.182 204.59 294.37Z" fill="#EB996E"/>
<path d="M305.64 122.44V127.35L306.64 200.79C306.76 209.31 299.53 216.21 290.4 216.27C281.18 216.33 273.49 209.4 273.23 200.79C272.95 191.79 272.5 182.24 272.5 182.24C272.5 182.24 260.8 180.63 257.97 165.51C256.56 157.99 256.6 145.59 256.97 135.45C257.037 133.277 257.546 131.14 258.466 129.171C259.386 127.201 260.698 125.439 262.322 123.993C263.946 122.547 265.847 121.448 267.91 120.761C269.973 120.075 272.154 119.816 274.32 120L305.64 122.44Z" fill="#FFBE9D"/>
<path d="M262.73 146.41C262.75 146.914 262.96 147.393 263.318 147.749C263.676 148.105 264.155 148.313 264.66 148.33C264.912 148.349 265.164 148.317 265.403 148.235C265.642 148.153 265.862 148.024 266.049 147.854C266.236 147.685 266.386 147.479 266.492 147.25C266.597 147.021 266.654 146.772 266.66 146.52C266.64 146.015 266.43 145.537 266.072 145.181C265.714 144.825 265.235 144.617 264.73 144.6C264.478 144.579 264.225 144.611 263.985 144.692C263.746 144.773 263.526 144.902 263.338 145.072C263.151 145.242 263 145.448 262.896 145.678C262.791 145.908 262.735 146.157 262.73 146.41Z" fill="#263238"/>
<path d="M259.9 141.82C260.15 142.06 261.6 140.93 263.69 140.88C265.78 140.83 267.35 141.88 267.57 141.57C267.79 141.26 267.42 141 266.74 140.57C265.815 139.964 264.725 139.66 263.62 139.7C262.532 139.73 261.481 140.105 260.62 140.77C260 141.24 259.78 141.7 259.9 141.82Z" fill="#263238"/>
<path d="M283.4 146.41C283.42 146.915 283.63 147.393 283.988 147.749C284.346 148.105 284.825 148.313 285.33 148.33C285.582 148.349 285.834 148.317 286.073 148.235C286.312 148.153 286.532 148.024 286.719 147.854C286.906 147.685 287.056 147.48 287.161 147.25C287.267 147.021 287.324 146.772 287.33 146.52C287.31 146.015 287.1 145.537 286.742 145.181C286.384 144.825 285.905 144.617 285.4 144.6C285.148 144.581 284.896 144.613 284.657 144.695C284.418 144.777 284.198 144.906 284.011 145.076C283.824 145.245 283.674 145.451 283.569 145.68C283.463 145.909 283.406 146.158 283.4 146.41Z" fill="#263238"/>
<path d="M280.52 141.64C280.77 141.89 282.22 140.75 284.31 140.7C286.4 140.65 287.97 141.7 288.19 141.39C288.41 141.08 288.05 140.82 287.36 140.39C286.434 139.787 285.344 139.487 284.24 139.53C283.153 139.557 282.103 139.928 281.24 140.59C280.61 141.06 280.4 141.53 280.52 141.64Z" fill="#263238"/>
<path d="M273.34 157.4C272.227 157.083 271.077 156.908 269.92 156.88C269.38 156.88 268.87 156.74 268.77 156.38C268.708 155.827 268.816 155.269 269.08 154.78L270.56 150.66C272.56 144.8 274.05 139.98 273.82 139.9C273.59 139.82 271.74 144.51 269.7 150.37L268.29 154.52C267.976 155.177 267.898 155.922 268.07 156.63C268.155 156.816 268.281 156.98 268.439 157.11C268.596 157.239 268.781 157.332 268.98 157.38C269.277 157.457 269.583 157.494 269.89 157.49C271.04 157.597 272.198 157.567 273.34 157.4Z" fill="#263238"/>
<path d="M272.58 182.24C279.736 182.147 286.725 180.07 292.77 176.24C292.77 176.24 288.12 186.81 272.88 185.81L272.58 182.24Z" fill="#EB996E"/>
<path d="M274.37 162.42C274.755 161.909 275.263 161.504 275.847 161.243C276.432 160.982 277.073 160.874 277.71 160.93C278.175 160.956 278.629 161.077 279.045 161.285C279.461 161.493 279.831 161.784 280.13 162.14C280.419 162.481 280.598 162.902 280.641 163.347C280.683 163.792 280.589 164.24 280.37 164.63C280.043 165.015 279.609 165.294 279.122 165.432C278.636 165.569 278.12 165.558 277.64 165.4C276.638 165.08 275.71 164.563 274.91 163.88C274.674 163.717 274.467 163.514 274.3 163.28C274.222 163.163 274.18 163.026 274.18 162.885C274.18 162.744 274.222 162.607 274.3 162.49" fill="#EB996E"/>
<path d="M279.55 158.68C279.21 158.68 279.27 160.94 277.36 162.61C275.45 164.28 273.03 164.1 273.02 164.41C273.02 164.56 273.57 164.84 274.6 164.84C275.934 164.82 277.219 164.331 278.23 163.46C279.196 162.623 279.799 161.443 279.91 160.17C280 159.21 279.71 158.66 279.55 158.68Z" fill="#263238"/>
<path d="M279.75 133.44C279.97 134 282.06 133.67 284.53 133.9C287 134.13 289 134.75 289.32 134.23C289.45 133.98 289.09 133.45 288.32 132.92C287.23 132.274 286.007 131.884 284.744 131.78C283.481 131.676 282.211 131.861 281.03 132.32C280.1 132.71 279.66 133.17 279.75 133.44Z" fill="#263238"/>
<path d="M260.5 135.73C260.89 136.19 262.32 135.66 264.05 135.59C265.78 135.52 267.27 135.82 267.59 135.31C267.74 135.07 267.49 134.59 266.84 134.16C265.966 133.631 264.949 133.387 263.93 133.46C262.912 133.493 261.93 133.842 261.12 134.46C260.52 135 260.34 135.5 260.5 135.73Z" fill="#263238"/>
<path d="M286.54 117.63C282.48 123.03 286.7 130.63 291.38 135.55C296.06 140.47 301.76 146.08 300.48 152.71C299 160.4 288.48 165.32 290.05 172.99C290.62 175.79 292.83 178.18 292.84 180.99C292.84 186.15 286.18 188.65 284.26 193.44C281.63 200 288.87 206.54 288.98 213.61C289.04 217.61 286.76 221.37 286.64 225.38C286.39 233.6 296.12 239.62 304.09 237.6C312.06 235.58 317.52 227.8 319.26 219.76C321 211.72 318.36 200.42 317.07 192.3L330.88 195.5C333.46 193.05 329.94 190.44 329.36 186.93C327.91 178.14 322.13 170.7 319.36 162.22C316.95 154.81 316.94 146.88 315.89 139.16C314.84 131.44 312.44 123.4 306.55 118.31C300.66 113.22 290.46 112.59 285.69 118.75" fill="#263238"/>
<path d="M295.49 258.43L291.29 252.72L297 240L299 210.21C299 210.21 294.86 209.12 294.44 213.8C294.19 216.55 293.97 219.01 293.97 219.01L289.27 217.5L282.58 219.5C282.58 219.5 282.88 222.9 285.58 222.23C287.17 221.828 288.811 221.659 290.45 221.73L293.01 225.49V226.84L289.61 224.41H282.89L278.73 228C278.73 228 280.14 231.33 282.32 230.32C282.32 230.32 278.69 240.14 278.32 241.99C278.32 241.99 274.62 251.56 278.32 257.1C280.849 260.754 283.759 264.129 287 267.17L295.49 258.43Z" fill="#FFBE9D"/>
<path d="M297.17 229.33C297.405 228.871 297.502 228.353 297.45 227.84C297.085 226.62 296.595 225.44 295.99 224.32C295.167 222.675 294.497 220.958 293.99 219.19C294.976 220.746 295.816 222.389 296.5 224.1C296.8 224.78 297.09 225.43 297.36 226.1C297.635 226.646 297.801 227.24 297.85 227.85C297.876 228.273 297.768 228.693 297.54 229.05C297.34 229.27 297.19 229.35 297.17 229.33Z" fill="#EB996E"/>
<path d="M295.42 228.56C294.309 228.091 293.272 227.465 292.34 226.7C290.72 225.55 289.49 224.48 289.61 224.34C290.669 224.89 291.674 225.54 292.61 226.28C293.65 226.903 294.596 227.671 295.42 228.56Z" fill="#EB996E"/>
<path d="M292.41 234.18C291.835 233.754 291.354 233.212 291 232.59C290.567 231.962 290.198 231.292 289.9 230.59C289.721 230.172 289.564 229.745 289.43 229.31C289.414 229.225 289.38 229.144 289.33 229.073C289.28 229.002 289.215 228.943 289.14 228.9C288.936 228.83 288.725 228.787 288.51 228.77C287.14 228.59 285.84 228.36 284.8 228.26H284.87C284.495 228.474 284.157 228.748 283.87 229.07C283.58 229.37 283.33 229.63 283.11 229.83C282.67 230.25 282.33 230.41 282.31 230.36C282.29 230.31 282.55 230.12 282.92 229.66L283.61 228.83C283.909 228.422 284.291 228.081 284.73 227.83H284.8C285.93 227.89 287.19 228.09 288.57 228.27C288.841 228.288 289.108 228.349 289.36 228.45C289.494 228.524 289.611 228.625 289.705 228.745C289.8 228.865 289.869 229.003 289.91 229.15C290.05 229.62 290.17 230.02 290.33 230.42C290.608 231.113 290.943 231.782 291.33 232.42C292 233.5 292.47 234.12 292.41 234.18Z" fill="#EB996E"/>
<path d="M286.16 235C286.123 233.889 286.258 232.78 286.56 231.71C286.69 230.604 287.001 229.526 287.48 228.52C287.516 229.631 287.377 230.741 287.07 231.81C286.938 232.915 286.631 233.992 286.16 235Z" fill="#EB996E"/>
<path d="M291.22 240.62C291.283 240.281 291.237 239.931 291.09 239.62C290.903 239.292 290.615 239.033 290.27 238.88C289.804 238.714 289.296 238.714 288.83 238.88C288.24 239.092 287.685 239.388 287.18 239.76C286.573 240.201 285.897 240.539 285.18 240.76C284.736 240.888 284.265 240.881 283.825 240.74C283.385 240.6 282.997 240.331 282.71 239.97C282.573 239.755 282.486 239.513 282.455 239.26C282.424 239.008 282.449 238.751 282.53 238.51C282.691 238.057 282.939 237.639 283.26 237.28C284.38 235.98 285.644 234.812 287.03 233.8C287.657 233.331 288.394 233.032 289.17 232.93C289.868 232.871 290.568 233.032 291.17 233.39C291.983 233.892 292.668 234.577 293.17 235.39C293.388 235.66 293.56 235.964 293.68 236.29C293.429 236.055 293.205 235.793 293.01 235.51C292.471 234.782 291.791 234.169 291.01 233.71C290.474 233.424 289.865 233.302 289.26 233.36C288.564 233.473 287.907 233.758 287.35 234.19C286.021 235.204 284.801 236.353 283.71 237.62C283.14 238.26 282.77 239.09 283.18 239.69C283.412 239.966 283.717 240.17 284.061 240.278C284.405 240.386 284.772 240.394 285.12 240.3C286.53 239.92 287.57 238.77 288.81 238.49C289.36 238.318 289.954 238.354 290.48 238.59C290.867 238.788 291.174 239.113 291.35 239.51C291.54 240.27 291.22 240.65 291.22 240.62Z" fill="#EB996E"/>
<path d="M335 302.86C334.729 303.221 334.424 303.556 334.09 303.86C333.151 304.72 332.072 305.414 330.9 305.91C329.038 306.707 327.035 307.118 325.01 307.12C322.331 307.117 319.683 306.548 317.24 305.45C314.299 304.112 311.549 302.39 309.06 300.33C306.35 298.15 303.53 295.76 300.63 293.16C297.576 290.448 294.74 287.499 292.15 284.34C289.426 280.905 286.972 277.264 284.81 273.45C284.34 272.62 283.88 271.79 283.41 270.98L283.32 270.81L283.46 270.67L298.8 254.85L298.93 254.71L299.1 254.81C309.1 261.01 317.54 266.54 323.52 270.35L330.52 274.81L332.37 276L332.85 276.31L333 276.43C333 276.43 332.94 276.43 332.82 276.35L332.33 276.07L330.44 274.94C328.79 273.94 326.44 272.48 323.38 270.6C317.38 266.85 308.92 261.39 298.86 255.22H299.16L283.87 271V270.69C284.33 271.51 284.8 272.33 285.26 273.16C287.421 276.956 289.872 280.58 292.59 284C295.156 287.145 297.969 290.081 301 292.78C306.81 297.9 312 302.78 317.43 305.09C319.821 306.192 322.417 306.778 325.05 306.81C327.04 306.828 329.014 306.454 330.86 305.71C332.025 305.238 333.106 304.579 334.06 303.76C334.71 303.19 335 302.84 335 302.86Z" fill="#263238"/>
<path d="M318.54 239.46C318.572 239.816 318.572 240.174 318.54 240.53C318.54 241.33 318.49 242.3 318.46 243.43C318.37 246.02 318.25 249.34 318.12 253.02C317.99 256.7 317.83 260.15 317.69 262.6L317.51 265.5C317.508 265.858 317.461 266.214 317.37 266.56C317.299 266.208 317.279 265.848 317.31 265.49C317.31 264.8 317.31 263.81 317.31 262.58C317.31 260.13 317.45 256.74 317.59 253C317.73 249.26 317.91 245.87 318.08 243.42C318.094 242.087 318.248 240.76 318.54 239.46Z" fill="#263238"/>
<path d="M331.2 213.14C331.2 213.23 330.12 213.6 328.51 214.55C327.569 215.103 326.679 215.739 325.85 216.45C323.824 218.197 322.191 220.355 321.06 222.78C320.597 223.767 320.226 224.795 319.95 225.85C319.47 227.66 319.42 228.85 319.32 228.85C319.269 228.579 319.269 228.301 319.32 228.03C319.352 227.279 319.452 226.532 319.62 225.8C319.844 224.705 320.179 223.636 320.62 222.61C321.733 220.093 323.418 217.871 325.54 216.12C326.403 215.405 327.338 214.782 328.33 214.26C328.991 213.9 329.684 213.602 330.4 213.37C330.653 213.252 330.923 213.175 331.2 213.14Z" fill="#263238"/>
<path d="M253.15 268.86C252.868 268.353 252.627 267.825 252.43 267.28C252 266.28 251.38 264.75 250.7 262.87C249.36 259.13 247.53 253.78 247.51 247.6C247.509 246.102 247.633 244.607 247.88 243.13C248.143 241.76 248.477 240.405 248.88 239.07C249.62 236.53 250.32 234.27 250.7 232.32C251.027 230.786 251.152 229.216 251.07 227.65C251.01 226.55 250.86 225.94 250.92 225.93C250.978 226.068 251.021 226.213 251.05 226.36C251.156 226.78 251.23 227.208 251.27 227.64C251.429 229.221 251.362 230.818 251.07 232.38C250.73 234.38 250.07 236.66 249.34 239.2C249 240.47 248.65 241.81 248.41 243.2C248.175 244.651 248.058 246.12 248.06 247.59C248.06 253.66 249.83 258.98 251.06 262.74C251.69 264.63 252.26 266.15 252.63 267.2C252.848 267.738 253.022 268.293 253.15 268.86Z" fill="#263238"/>
<path d="M302.11 309.49C301.971 309.579 301.819 309.647 301.66 309.69L300.36 310.17C299.23 310.58 297.56 311.1 295.48 311.67C293.4 312.24 290.89 312.81 288.08 313.32C285.27 313.83 282.16 314.2 278.87 314.43C275.58 314.66 272.44 314.65 269.59 314.55C266.74 314.45 264.18 314.19 262.04 313.89C259.9 313.59 258.18 313.31 257.04 313.05L255.69 312.75C255.528 312.723 255.37 312.676 255.22 312.61C255.382 312.584 255.548 312.584 255.71 312.61L257.08 312.82C258.27 313.02 259.99 313.26 262.08 313.49C264.17 313.72 266.77 313.93 269.61 314.04C272.45 314.15 275.61 314.09 278.84 313.88C282.07 313.67 285.2 313.26 288 312.81C290.8 312.36 293.31 311.81 295.39 311.28C297.47 310.75 299.15 310.28 300.3 309.94L301.63 309.56C301.786 309.514 301.947 309.49 302.11 309.49Z" fill="#263238"/>
<path d="M249.62 287.08C249.545 287.606 249.404 288.12 249.2 288.61C248.87 289.61 248.35 290.96 247.71 292.66C246.41 296.07 244.58 300.75 242.65 305.96C240.72 311.17 239.06 315.96 237.94 319.38L236.63 323.49C236.5 324.004 236.326 324.506 236.11 324.99C236.175 324.465 236.286 323.946 236.44 323.44C236.67 322.44 237.07 321.03 237.58 319.27C238.58 315.78 240.22 311 242.16 305.78C244.1 300.56 245.98 295.9 247.36 292.52L249.01 288.52C249.4 287.6 249.59 287.07 249.62 287.08Z" fill="#263238"/>
<path d="M319.59 479.05C319.577 478.927 319.577 478.803 319.59 478.68C319.59 478.41 319.59 478.06 319.59 477.6C319.59 476.6 319.53 475.24 319.49 473.46C319.43 469.86 319.39 464.66 319.4 458.22C319.4 445.35 319.58 427.58 319.4 407.95C319.22 388.32 318.6 370.55 317.4 357.74C317.08 354.54 316.86 351.64 316.49 349.12C316.33 347.853 316.18 346.673 316.04 345.58C315.97 345.04 315.91 344.52 315.85 344.03C315.79 343.54 315.68 343.03 315.6 342.63C315.31 340.88 315.08 339.51 314.91 338.54C314.84 338.1 314.79 337.74 314.75 337.48C314.734 337.357 314.734 337.233 314.75 337.11C314.792 337.226 314.822 337.347 314.84 337.47L315.06 338.47C315.24 339.47 315.51 340.8 315.84 342.54C315.93 342.99 316.02 343.45 316.11 343.94C316.2 344.43 316.25 344.94 316.33 345.5C316.48 346.59 316.64 347.76 316.82 349.03C317.22 351.56 317.47 354.46 317.82 357.66C319.11 370.47 319.82 388.26 319.97 407.9C320.12 427.54 319.89 445.31 319.8 458.17C319.8 464.58 319.74 469.78 319.73 473.41V477.55C319.73 478 319.73 478.36 319.73 478.63C319.704 478.776 319.657 478.917 319.59 479.05Z" fill="#455A64"/>
<path d="M308.4 121C308.243 119.688 308.506 118.36 309.151 117.206C309.796 116.053 310.79 115.133 311.99 114.58C313.208 114.065 314.529 113.841 315.848 113.926C317.167 114.011 318.449 114.403 319.59 115.07C321.037 115.869 322.27 117.005 323.186 118.381C324.102 119.756 324.674 121.332 324.853 122.975C325.033 124.618 324.814 126.281 324.217 127.822C323.619 129.363 322.66 130.737 321.42 131.83C320.042 133.131 318.215 133.848 316.32 133.83C314.686 133.591 313.099 133.095 311.62 132.36C310.07 131.77 308.3 131.36 306.81 132.1" fill="#263238"/>
<path d="M315.22 133.82C314.53 131.26 313.606 128.77 312.46 126.38C311.149 124.077 309.622 121.904 307.9 119.89C308.563 120.321 309.153 120.855 309.65 121.47C312.226 124.301 314.036 127.743 314.91 131.47C315.133 132.233 315.238 133.025 315.22 133.82Z" fill="#115E59"/>
<path d="M312.75 127.6C312.41 127.884 312.041 128.132 311.65 128.34C310.596 128.935 309.492 129.437 308.35 129.84C304.553 131.176 300.477 131.521 296.51 130.84C294.327 130.466 292.211 129.772 290.23 128.78C288.58 127.992 287.169 126.781 286.14 125.27C285.462 124.234 285.091 123.028 285.07 121.79C285.061 121.454 285.095 121.118 285.17 120.79C285.22 120.57 285.26 120.46 285.28 120.46C285.3 120.46 285.21 120.94 285.28 121.77C285.376 122.952 285.783 124.087 286.46 125.06C288.1 127.6 292.11 129.52 296.6 130.32C300.491 130.975 304.483 130.687 308.24 129.48C309.78 128.944 311.286 128.316 312.75 127.6Z" fill="#455A64"/>
<path d="M313.8 133C313.8 133 313.66 133.25 313.34 133.65C312.879 134.201 312.374 134.712 311.83 135.18C308.209 138.353 303.544 140.076 298.73 140.02C298.013 140.023 297.297 139.963 296.59 139.84C296.08 139.75 295.81 139.69 295.82 139.65C295.83 139.61 296.94 139.71 298.73 139.65C301.059 139.569 303.361 139.121 305.55 138.32C307.719 137.503 309.745 136.345 311.55 134.89C313 133.74 313.73 132.9 313.8 133Z" fill="#455A64"/>
<path d="M323.25 122C323.373 122.646 323.303 123.313 323.05 123.92C322.578 125.453 321.569 126.763 320.207 127.611C318.845 128.458 317.223 128.784 315.64 128.53C314.987 128.477 314.36 128.245 313.83 127.86C313.83 127.78 314.54 128.07 315.68 128.16C317.164 128.302 318.653 127.952 319.918 127.164C321.183 126.376 322.153 125.194 322.68 123.8C323.13 122.77 323.17 122 323.25 122Z" fill="#455A64"/>
<path d="M429.53 442.39H53.45L52.47 454.37H125.39V479.42H132.44V454.37H400.05V479.53H407.09V454.37H429.53V442.39Z" fill="#455A64"/>
<path d="M351.37 350.35C351.37 349.81 343.67 315.54 343.08 312.95L349.59 303.34C349.59 303.34 351.97 301.08 351.23 300.07C350.49 299.06 349.23 298.93 347.82 299.85C346.93 300.44 342.26 302.91 342.26 302.91C342.26 302.91 340.49 289 340.12 288C339.75 287 338.78 286.52 338.12 287.25C337.46 287.98 337.64 297.41 337.64 297.41C337.64 297.41 333.89 285.79 333.09 285.33C332.897 285.212 332.68 285.139 332.455 285.117C332.229 285.095 332.002 285.125 331.79 285.204C331.578 285.283 331.387 285.409 331.231 285.573C331.075 285.737 330.958 285.934 330.89 286.15C330.89 286.61 333.46 299.07 333.46 299.07C333.46 299.07 327.46 287.71 326.46 288.07C326.071 288.167 325.726 288.391 325.478 288.706C325.23 289.021 325.093 289.409 325.09 289.81C325 290.63 329.09 302.62 329.09 302.62C329.09 302.62 324.51 293.83 323.69 294.11C323.284 294.333 322.959 294.681 322.765 295.102C322.571 295.523 322.516 295.996 322.61 296.45C322.73 297.25 328.43 314.58 329.49 317.77L331.91 358.77L348.38 394.33L363.23 373.55C363.23 373.55 351.37 350.92 351.37 350.35Z" fill="#FFBE9D"/>
<path d="M372.6 360.79C372.6 360.79 370.6 389.79 374.48 394.33C378.36 398.87 386.28 397.69 386.28 397.69L391.42 373L372.6 360.79Z" fill="#FFBE9D"/>
<path d="M363.82 373.67L371.34 384.27L388.34 393.19L427 413.46C428.988 414.503 430.551 416.205 431.421 418.274C432.291 420.343 432.415 422.65 431.77 424.8L430.43 429.27L415.93 465.13L416.67 479.53L339.5 479.42C339.5 479.42 356.85 423.01 357.4 419.42C357.95 415.83 354.62 411.06 354.62 411.06C354.62 411.06 344.62 404.06 344.62 403.25C344.62 402.44 346 375.07 363.82 373.67Z" fill="#115E59"/>
<path d="M362 433.59C361.9 433.59 362 432.21 361.84 430.02C361.728 428.734 361.528 427.458 361.24 426.2C360.879 424.662 360.418 423.149 359.86 421.67C358.804 419.004 357.513 416.437 356 414C354.84 412.12 354.05 411 354.12 411C354.363 411.212 354.578 411.454 354.76 411.72C355.16 412.2 355.69 412.93 356.31 413.86C357.927 416.273 359.268 418.859 360.31 421.57C360.882 423.07 361.34 424.611 361.68 426.18C361.948 427.465 362.116 428.769 362.18 430.08C362.18 430.64 362.18 431.15 362.18 431.59C362.184 431.971 362.164 432.352 362.12 432.73C362.12 433.021 362.079 433.31 362 433.59Z" fill="#263238"/>
<path d="M405.94 461.13C405.461 461.361 404.962 461.548 404.45 461.69C403.45 462.02 402.07 462.47 400.32 463.01C396.83 464.1 391.98 465.52 386.59 467.01C381.2 468.5 376.3 469.7 372.74 470.53C370.96 470.95 369.51 471.27 368.51 471.48C367.997 471.62 367.471 471.711 366.94 471.75C367.435 471.557 367.943 471.399 368.46 471.28L372.65 470.17L386.46 466.5L400.22 462.68L404.39 461.52C404.896 461.35 405.414 461.219 405.94 461.13Z" fill="#263238"/>
<path d="M431.16 425.51L430.53 425.31C429.924 425.088 429.306 424.897 428.68 424.74C426.283 424.117 423.799 423.901 421.33 424.1C417.415 424.4 413.661 425.785 410.49 428.1C408.513 429.534 406.789 431.288 405.39 433.29C403.794 435.505 402.699 438.04 402.18 440.72C401.912 442.152 401.949 443.624 402.29 445.04C402.639 446.513 403.492 447.818 404.7 448.73C406.027 449.633 407.595 450.116 409.2 450.116C410.805 450.116 412.373 449.633 413.7 448.73C415.046 447.657 416.066 446.228 416.644 444.606C417.221 442.984 417.334 441.233 416.97 439.55C416.57 437.764 415.748 436.1 414.574 434.696C413.4 433.293 411.907 432.19 410.22 431.48C406.649 429.924 402.642 429.683 398.91 430.8C396.976 431.315 395.115 432.071 393.37 433.05C391.579 434.029 389.902 435.203 388.37 436.55C385.215 439.327 382.721 442.775 381.07 446.64C380.235 448.615 379.656 450.688 379.35 452.81C379.197 453.873 379.134 454.947 379.16 456.02C379.166 457.082 379.467 458.12 380.03 459.02C380.332 459.439 380.717 459.792 381.161 460.057C381.605 460.322 382.098 460.493 382.61 460.56C383.657 460.724 384.727 460.666 385.75 460.39C387.803 459.858 389.602 458.619 390.83 456.89C392.002 455.181 392.537 453.114 392.341 451.051C392.145 448.988 391.232 447.059 389.76 445.6C388.29 444.201 386.486 443.203 384.52 442.7C382.599 442.164 380.601 441.951 378.61 442.07C374.728 442.316 370.951 443.434 367.56 445.34C364.326 447.142 361.511 449.61 359.3 452.58C357.19 455.44 355.67 458.79 355.79 462.15C355.816 463.757 356.331 465.317 357.265 466.625C358.199 467.932 359.509 468.925 361.02 469.47C361.737 469.683 362.49 469.75 363.234 469.668C363.977 469.585 364.697 469.355 365.35 468.99C366.606 468.284 367.644 467.246 368.35 465.99C369.586 463.553 369.912 460.756 369.27 458.1C368.805 455.707 367.943 453.409 366.72 451.3C364.45 447.35 360.81 444.96 357.58 444.81C356.163 444.705 354.739 444.896 353.4 445.37C352.418 445.722 351.515 446.262 350.74 446.96C350.116 447.542 349.587 448.216 349.17 448.96C349.17 448.96 349.26 448.76 349.46 448.37C349.791 447.81 350.198 447.298 350.67 446.85C351.607 446.015 352.706 445.382 353.898 444.99C355.09 444.597 356.35 444.455 357.6 444.57C360.9 444.69 364.65 447.11 366.97 451.11C368.221 453.246 369.11 455.574 369.6 458C370.269 460.738 369.939 463.624 368.67 466.14C367.926 467.466 366.828 468.56 365.5 469.3C364.801 469.692 364.03 469.941 363.233 470.03C362.436 470.119 361.629 470.048 360.86 469.82C359.265 469.255 357.881 468.217 356.891 466.845C355.901 465.473 355.353 463.832 355.32 462.14C355.18 458.63 356.75 455.2 358.89 452.28C361.194 449.177 364.145 446.61 367.537 444.758C370.93 442.905 374.684 441.811 378.54 441.55C380.588 441.421 382.642 441.634 384.62 442.18C386.662 442.708 388.54 443.739 390.08 445.18C391.637 446.725 392.604 448.766 392.812 450.949C393.02 453.132 392.457 455.319 391.22 457.13C389.918 458.96 388.013 460.273 385.84 460.84C384.745 461.135 383.6 461.196 382.48 461.02C381.9 460.941 381.342 460.746 380.84 460.445C380.338 460.144 379.903 459.744 379.56 459.27C378.929 458.298 378.583 457.169 378.56 456.01C378.536 454.903 378.603 453.796 378.76 452.7C379.067 450.533 379.655 448.415 380.51 446.4C382.213 442.475 384.772 438.98 388 436.17C389.564 434.795 391.278 433.601 393.11 432.61C394.889 431.612 396.788 430.842 398.76 430.32C402.604 429.18 406.726 429.435 410.4 431.04C412.155 431.784 413.706 432.938 414.924 434.405C416.142 435.871 416.991 437.608 417.4 439.47C417.779 441.237 417.654 443.075 417.038 444.774C416.423 446.473 415.343 447.965 413.92 449.08C412.52 450.031 410.865 450.536 409.172 450.527C407.48 450.518 405.83 449.996 404.44 449.03C403.168 448.057 402.268 446.677 401.89 445.12C401.548 443.65 401.514 442.124 401.79 440.64C402.335 437.911 403.465 435.332 405.1 433.08C406.525 431.055 408.283 429.287 410.3 427.85C412.933 425.98 415.951 424.722 419.132 424.166C422.314 423.611 425.579 423.773 428.69 424.64C429.536 424.863 430.362 425.154 431.16 425.51Z" fill="#FAFAFA"/>
<path d="M379.52 394C378.993 394.948 378.317 395.805 377.52 396.54C375.427 398.629 372.755 400.04 369.85 400.59C367.84 400.974 365.77 400.906 363.79 400.39C361.516 399.788 359.414 398.665 357.65 397.11C356.7 396.272 355.862 395.314 355.16 394.26C354.398 393.163 353.842 391.936 353.52 390.64C353.326 389.959 353.269 389.246 353.351 388.542C353.433 387.839 353.654 387.158 354 386.54C354.408 385.922 354.964 385.416 355.617 385.067C356.27 384.718 357 384.537 357.74 384.54C359.186 384.515 360.61 384.896 361.85 385.64C363.033 386.385 364.053 387.361 364.85 388.51C366.28 390.704 366.98 393.294 366.85 395.91C366.794 397.119 366.569 398.314 366.18 399.46C365.797 400.529 365.265 401.539 364.6 402.46C363.36 404.091 361.744 405.398 359.89 406.27C357.218 407.543 354.223 407.976 351.3 407.51C350.238 407.362 349.204 407.059 348.23 406.61C349.248 406.907 350.283 407.141 351.33 407.31C354.204 407.687 357.125 407.21 359.73 405.94C361.512 405.07 363.062 403.788 364.25 402.2C364.883 401.305 365.388 400.325 365.75 399.29C366.111 398.18 366.32 397.026 366.37 395.86C366.486 393.351 365.807 390.87 364.43 388.77C363.687 387.685 362.731 386.763 361.62 386.06C360.464 385.37 359.136 385.023 357.79 385.06C357.138 385.048 356.493 385.201 355.914 385.503C355.336 385.805 354.843 386.248 354.48 386.79C354.168 387.351 353.969 387.969 353.897 388.608C353.825 389.246 353.881 389.893 354.06 390.51C354.369 391.742 354.894 392.91 355.61 393.96C356.285 394.984 357.092 395.916 358.01 396.73C359.713 398.247 361.742 399.352 363.94 399.96C365.858 400.471 367.865 400.557 369.82 400.21C372.674 399.699 375.315 398.364 377.42 396.37C378.172 395.628 378.874 394.836 379.52 394Z" fill="#FAFAFA"/>
<path d="M415 476.41C414.94 476.49 414.13 475.85 412.61 475.26C410.645 474.46 408.493 474.232 406.404 474.602C404.314 474.972 402.372 475.924 400.8 477.35C399.58 478.43 399.04 479.35 398.96 479.25C398.88 479.15 399.04 479 399.29 478.61C399.65 478.053 400.073 477.54 400.55 477.08C402.127 475.521 404.138 474.476 406.32 474.08C408.501 473.707 410.745 473.996 412.76 474.91C413.363 475.178 413.933 475.514 414.46 475.91C414.81 476.2 415 476.39 415 476.41Z" fill="#FAFAFA"/>
<g opacity="0.3">
<path d="M404 396.34C396.49 393.04 388.06 392.67 380.13 389.01L370.86 384.15C371.76 385.57 374.3 386.75 374.91 388.9C375.362 391.101 375.45 393.361 375.17 395.59C374.861 401.569 375.379 407.562 376.71 413.4C377.54 417.03 379.12 421.07 382.65 422.29C385 423.1 387.59 422.4 389.98 421.7C400.64 418.56 413.37 415.17 424.03 412.03C420.85 404.46 411.5 399.63 404 396.34Z" fill="black"/>
</g>
<path d="M428.29 362C427.13 356.41 425.45 350.7 421.69 346.4C417.32 341.4 410.57 338.89 403.92 338.47C398.22 338.11 397.09 335.31 391.27 336.26C389.03 336.65 386.886 337.472 384.96 338.68C376.81 343.68 372.25 351.9 369.87 361.57C368.98 365.19 368.94 369.7 371.96 371.88C374.15 373.46 377.25 373.25 379.46 374.8C381.91 376.53 382.54 379.97 382.03 382.93C381.52 385.89 380.12 388.61 379.29 391.49C377.29 398.49 378.74 405.93 380.21 413.05L422.69 411.82C424.33 411.77 426.12 411.66 427.31 410.53C428.222 409.472 428.775 408.152 428.89 406.76C431.562 391.94 431.358 376.744 428.29 362Z" fill="#263238"/>
<path d="M373.05 362.88C373.034 362.487 373.068 362.094 373.15 361.71C373.2 361.256 373.277 360.805 373.38 360.36C373.5 359.83 373.6 359.23 373.8 358.58C374.216 357.047 374.751 355.549 375.4 354.1C376.202 352.331 377.155 350.635 378.25 349.03C379.37 347.436 380.621 345.937 381.99 344.55C383.114 343.43 384.325 342.4 385.61 341.47C386.14 341.06 386.67 340.74 387.12 340.47C387.501 340.216 387.895 339.983 388.3 339.77C388.632 339.562 388.988 339.394 389.36 339.27C389.41 339.35 387.94 340.15 385.83 341.79C384.593 342.748 383.423 343.791 382.33 344.91C381.004 346.293 379.784 347.774 378.68 349.34C377.603 350.931 376.65 352.603 375.83 354.34C375.173 355.761 374.611 357.224 374.15 358.72C373.37 361.24 373.15 362.9 373.05 362.88Z" fill="#455A64"/>
<path d="M378.11 368.89C378.029 367.943 378.059 366.99 378.2 366.05C378.419 363.769 378.817 361.509 379.39 359.29C379.962 357.073 380.704 354.903 381.61 352.8C381.945 351.91 382.381 351.061 382.91 350.27C382.641 351.179 382.306 352.068 381.91 352.93C380.309 357.185 379.172 361.601 378.52 366.1C378.451 367.039 378.314 367.971 378.11 368.89Z" fill="#455A64"/>
<path d="M419.65 404.2C419.563 403.98 419.499 403.753 419.46 403.52C419.34 403.07 419.21 402.39 419.05 401.52C418.665 399.048 418.467 396.551 418.46 394.05C418.46 390.89 418.67 387.12 419.01 382.96C419.456 378.464 419.663 373.948 419.63 369.43C419.612 364.923 418.8 360.455 417.23 356.23C415.89 352.804 413.819 349.712 411.16 347.17C409.359 345.464 407.243 344.126 404.93 343.23C404.298 342.996 403.653 342.796 403 342.63C402.767 342.583 402.539 342.513 402.32 342.42C402.556 342.439 402.79 342.475 403.02 342.53C403.7 342.645 404.368 342.815 405.02 343.04C407.399 343.873 409.581 345.187 411.43 346.9C414.174 349.446 416.316 352.572 417.7 356.05C419.315 360.323 420.152 364.851 420.17 369.42C420.207 373.955 419.986 378.489 419.51 383C419.14 387.16 418.87 390.9 418.85 394.05C418.82 396.537 418.963 399.023 419.28 401.49C419.4 402.36 419.5 403.04 419.58 403.49C419.631 403.723 419.654 403.961 419.65 404.2Z" fill="#455A64"/>
<path d="M415.68 403.57C415.477 402.515 415.363 401.444 415.34 400.37C415.22 398.37 415.14 395.65 415.19 392.61C415.24 389.57 415.45 386.84 415.65 384.87C415.706 383.794 415.863 382.726 416.12 381.68C416.155 382.751 416.122 383.823 416.02 384.89C415.91 386.89 415.78 389.6 415.71 392.62C415.64 395.64 415.71 398.38 415.71 400.36C415.782 401.429 415.772 402.502 415.68 403.57Z" fill="#455A64"/>
<path d="M224.3 375.63C224.713 381.123 225.12 386.61 225.52 392.09C221.38 392.85 217.08 393.32 212.99 392.34C208.9 391.36 204.99 388.69 203.54 384.74C203.215 383.991 203.118 383.164 203.26 382.36C203.346 381.965 203.55 381.606 203.845 381.329C204.139 381.053 204.511 380.872 204.91 380.81" fill="#FFBE9D"/>
<path d="M235.39 358.08C236.04 356.08 238.78 354.84 238.8 352.73C238.82 350.62 235.93 349.33 235.08 347.28C233.8 344.19 237.59 340.91 236.71 337.71C235.71 333.87 229.07 333.46 227.84 329.71C227.33 328.14 227.84 326.17 226.56 325.04C224.9 323.56 222 325.04 219.91 324.15C217.98 323.31 217.48 320.74 215.55 319.88C213.62 319.02 211.24 320.46 209.3 321.57C208.72 321.91 207.99 322.34 207.24 322.73C203.95 321.65 198.71 321.8 196.46 323.56C193.81 325.62 191.79 328.38 188.84 330.05C186.25 331.53 183.02 332.12 180.95 334.21C177.27 337.93 179.25 344.03 177.37 348.78C176.73 350.4 175.64 351.84 174.95 353.44C174.26 355.04 174.05 357 175.11 358.44C176.17 359.88 178.39 360.68 178.43 362.44C178.47 364.2 176.24 365.38 176.43 367.06C176.62 368.74 179.36 369.32 180.53 370.8C182.06 372.72 180.53 375.72 181.85 377.8C183.3 380.01 186.79 379.54 189.48 380.18C194.17 381.29 197.65 386.4 202.41 385.63C204.23 385.33 205.8 384.17 207.62 383.88C210.08 383.49 212.47 384.73 214.94 385.03C219.4 385.58 223.57 383.09 227.27 380.7C229.17 379.48 231.21 378.06 231.7 375.96C232.15 374.06 231.23 371.96 232.25 370.21C233.27 368.46 235.53 368.07 236.37 366.43C237.69 363.76 234.52 360.79 235.39 358.08Z" fill="#263238"/>
<path d="M187.82 338.4C187.755 338.281 187.708 338.153 187.68 338.02C187.596 337.643 187.562 337.256 187.58 336.87C187.676 335.427 188.307 334.072 189.35 333.07C190.903 331.61 192.87 330.667 194.98 330.37C196.26 330.158 197.573 330.452 198.64 331.19C199.185 331.627 199.605 332.2 199.86 332.85C200.121 333.536 200.121 334.294 199.86 334.98C199.729 335.333 199.511 335.648 199.226 335.894C198.941 336.141 198.598 336.311 198.23 336.39C197.848 336.476 197.447 336.423 197.1 336.24C196.763 336.047 196.512 335.732 196.4 335.36C196.315 335.02 196.304 334.666 196.366 334.322C196.428 333.977 196.562 333.649 196.76 333.36C197.13 332.828 197.643 332.412 198.24 332.16C199.25 331.744 200.374 331.694 201.416 332.019C202.459 332.344 203.356 333.024 203.95 333.94C204.716 335.165 205.024 336.62 204.82 338.05C204.781 338.431 204.701 338.807 204.58 339.17C204.49 339.42 204.44 339.54 204.42 339.54C204.4 339.54 204.56 339 204.62 338.03C204.728 336.662 204.376 335.296 203.62 334.15C203.107 333.376 202.35 332.795 201.47 332.5C200.471 332.145 199.376 332.178 198.4 332.59C197.903 332.808 197.472 333.153 197.15 333.59C196.995 333.819 196.889 334.078 196.839 334.35C196.79 334.622 196.797 334.901 196.86 335.17C196.936 335.421 197.108 335.631 197.338 335.756C197.568 335.882 197.838 335.912 198.09 335.84C198.375 335.779 198.64 335.647 198.86 335.457C199.08 335.266 199.249 335.023 199.35 334.75C199.512 334.17 199.496 333.554 199.303 332.984C199.11 332.413 198.751 331.913 198.27 331.55C197.308 330.884 196.124 330.618 194.97 330.81C192.957 331.079 191.07 331.943 189.55 333.29C188.533 334.219 187.884 335.483 187.72 336.85C187.716 337.369 187.749 337.887 187.82 338.4Z" fill="#455A64"/>
<path d="M183 357.73C182.79 357.431 182.647 357.09 182.58 356.73C182.266 355.508 182.311 354.221 182.71 353.024C183.109 351.826 183.845 350.77 184.83 349.98C185.577 349.396 186.438 348.974 187.358 348.742C188.277 348.51 189.235 348.471 190.17 348.63L189.87 348.93C189.76 348.201 189.76 347.459 189.87 346.73C190.024 345.666 190.394 344.645 190.956 343.728C191.518 342.812 192.261 342.02 193.14 341.4C194.363 340.597 195.791 340.163 197.253 340.149C198.716 340.135 200.152 340.541 201.39 341.32C201.654 341.494 201.905 341.688 202.14 341.9C202.29 342.05 202.37 342.13 202.36 342.14C201.992 341.946 201.635 341.733 201.29 341.5C200.303 340.961 199.212 340.641 198.09 340.56C196.437 340.421 194.787 340.86 193.42 341.8C192.612 342.392 191.931 343.139 191.416 343.997C190.901 344.856 190.562 345.809 190.42 346.8C190.315 347.479 190.315 348.171 190.42 348.85L190.47 349.21L190.12 349.14C189.248 348.987 188.354 349.015 187.494 349.223C186.633 349.431 185.825 349.815 185.12 350.35C183.978 351.216 183.175 352.454 182.85 353.85C182.625 354.781 182.601 355.749 182.78 356.69C182.9 357.36 183 357.71 183 357.73Z" fill="#455A64"/>
<path d="M217.69 330.32C217.69 330.4 216.99 330.19 215.89 330.14C214.455 330.051 213.022 330.341 211.735 330.982C210.449 331.623 209.353 332.591 208.56 333.79C207.94 334.7 207.7 335.37 207.62 335.34C207.681 334.713 207.897 334.112 208.25 333.59C209.007 332.266 210.14 331.196 211.505 330.516C212.871 329.836 214.407 329.577 215.92 329.77C216.548 329.797 217.157 329.987 217.69 330.32Z" fill="#455A64"/>
<path d="M232.18 356.77C232.18 356.77 232.37 356.4 232.64 355.77C233 354.813 233.14 353.788 233.05 352.77C232.948 351.275 232.301 349.869 231.23 348.82C230.562 348.206 229.77 347.741 228.908 347.456C228.046 347.172 227.133 347.074 226.23 347.17C225.382 347.264 224.562 347.529 223.82 347.95L223.29 348.27L223.45 347.67C223.624 346.945 223.624 346.19 223.45 345.465C223.276 344.741 222.933 344.067 222.45 343.5C222.056 343.047 221.575 342.678 221.036 342.416C220.496 342.153 219.909 342.001 219.31 341.97C218.5 341.922 217.691 342.07 216.95 342.4C216.69 342.544 216.423 342.674 216.15 342.79C216.345 342.552 216.591 342.361 216.87 342.23C217.62 341.819 218.465 341.615 219.32 341.64C219.974 341.645 220.619 341.786 221.215 342.054C221.811 342.323 222.344 342.713 222.78 343.2C223.329 343.817 223.721 344.557 223.922 345.358C224.124 346.159 224.13 346.996 223.94 347.8L223.56 347.51C224.364 347.043 225.256 346.75 226.18 346.65C227.155 346.547 228.141 346.656 229.069 346.97C229.998 347.285 230.848 347.796 231.56 348.47C232.49 349.425 233.108 350.64 233.333 351.954C233.558 353.268 233.379 354.62 232.82 355.83C232.7 356.088 232.552 356.333 232.38 356.56C232.26 356.7 232.2 356.78 232.18 356.77Z" fill="#455A64"/>
<path d="M178.59 449.48C178.59 449.48 166.24 451.97 164.39 450.65C162.54 449.33 155.69 444.85 156.74 438.78C157.79 432.71 170.46 389.47 173.09 386.3C175.72 383.13 178.37 379.97 183.64 380.24C188.91 380.51 223.46 387.88 223.46 387.88C223.46 387.88 237.7 387.09 240.6 389.2C243.5 391.31 250.1 395.27 250.1 402.65C250.1 410.03 248.64 460.65 248.64 460.65L252.48 479.24H176.48L178.6 449.48" fill="#115E59"/>
<path d="M178.59 449.48C178.44 449.48 177.53 439.48 176.59 427.03C175.65 414.58 174.94 404.54 175.08 404.53C175.22 404.52 176.14 414.53 177.08 426.99C178.02 439.45 178.73 449.47 178.59 449.48Z" fill="#263238"/>
<path d="M250 401.37C249.734 401.366 249.469 401.332 249.21 401.27L246.95 400.87L238.66 399.38C231.66 398.14 221.97 396.53 211.22 395.02C200.47 393.51 190.71 392.42 183.63 391.69L175.25 390.85L172.97 390.62C172.703 390.605 172.439 390.565 172.18 390.5C172.446 390.478 172.714 390.478 172.98 390.5L175.27 390.64C177.27 390.77 180.12 391 183.67 391.32C190.76 391.95 200.54 393 211.29 394.5C222.04 396 231.74 397.67 238.73 399.01C242.22 399.68 245.05 400.25 246.99 400.67L249.23 401.16C249.491 401.214 249.748 401.284 250 401.37Z" fill="#FAFAFA"/>
<path d="M248.64 419.8C248.391 419.828 248.139 419.828 247.89 419.8L245.76 419.75C243.9 419.75 241.22 419.58 237.9 419.42C231.28 419.08 222.13 418.48 212.05 417.56C201.97 416.64 192.86 415.56 186.28 414.69C182.99 414.26 180.33 413.88 178.5 413.6L176.39 413.26C176.142 413.234 175.898 413.184 175.66 413.11C175.911 413.102 176.162 413.119 176.41 413.16L178.53 413.4L186.33 414.33C192.91 415.11 202.02 416.12 212.1 417.04C222.18 417.96 231.31 418.62 237.93 419.04L245.76 419.54L247.9 419.69C248.149 419.712 248.396 419.749 248.64 419.8Z" fill="#FAFAFA"/>
<path d="M249.8 437C249.569 437.074 249.331 437.121 249.09 437.14L247.03 437.45C245.25 437.71 242.66 438.02 239.45 438.35C233.04 439 224.13 439.6 214.29 439.6C204.45 439.6 195.54 439.01 189.12 438.36C185.91 438.04 183.32 437.73 181.54 437.47L179.48 437.17C179.241 437.136 179.004 437.09 178.77 437.03C179.013 437.004 179.257 437.004 179.5 437.03L181.56 437.24C183.35 437.43 185.95 437.69 189.16 437.97C195.57 438.52 204.46 439.05 214.29 439.05C224.12 439.05 233 438.51 239.42 437.95C242.62 437.67 245.22 437.41 247.01 437.21L249.07 437.01C249.313 436.985 249.557 436.981 249.8 437Z" fill="#FAFAFA"/>
<path d="M248.45 462.44C248.214 462.494 247.972 462.517 247.73 462.51L245.67 462.62L238.09 462.87C231.68 463.05 222.83 463.22 213.09 463.28C203.35 463.34 194.45 463.28 188.09 463.02C184.89 462.91 182.29 462.81 180.51 462.68L178.45 462.53C178.208 462.525 177.966 462.495 177.73 462.44C177.97 462.423 178.21 462.423 178.45 462.44H180.52C182.31 462.51 184.9 462.56 188.1 462.63C194.5 462.74 203.35 462.78 213.1 462.72L238.1 462.47L245.69 462.38H247.75C247.985 462.382 248.219 462.402 248.45 462.44Z" fill="#FAFAFA"/>
<path d="M176.81 427.46C174.101 426.918 171.428 426.203 168.81 425.32C166.147 424.607 163.531 423.725 160.98 422.68C163.689 423.224 166.361 423.939 168.98 424.82C171.644 425.532 174.259 426.413 176.81 427.46Z" fill="#FAFAFA"/>
<path d="M66.45 392.5C66.2 386.61 61.1 376 59 365.57C57.93 360.24 57.29 355.5 60.73 351.28C63.64 347.71 67.73 345.28 71.73 343.02C78.12 339.39 84.87 335.82 92.2 335.42C96.98 335.16 102.14 336.5 105.2 340.18C107.71 343.18 108.42 347.3 108.91 351.18C109.738 357.666 110.202 364.192 110.3 370.73C110.48 374.128 110.143 377.533 109.3 380.83C108.871 382.476 108.119 384.021 107.089 385.375C106.06 386.729 104.772 387.866 103.3 388.72C100.7 390.07 97.6 390.19 95 391.54C92.4 392.89 90.48 396.54 92.41 398.7L75.21 403.4L66.45 392.5Z" fill="#A36957"/>
<path d="M62.86 383.91C63.7445 385.755 64.9921 387.404 66.5282 388.756C68.0643 390.108 69.8573 391.137 71.8 391.78C73.7581 392.388 75.843 392.463 77.8399 391.998C79.8367 391.532 81.6732 390.542 83.16 389.13C84.85 387.4 85.85 385.13 87 383C88.15 380.87 89.57 378.73 91.74 377.64C93.91 376.55 97 376.89 98.2 379C98.6 379.66 98.85 380.5 99.54 380.85C100 381.007 100.504 380.976 100.942 380.765C101.38 380.554 101.717 380.178 101.88 379.72C102.168 378.788 102.193 377.795 101.95 376.85C101.202 373.298 100.811 369.68 100.78 366.05C100.92 362.43 101.97 358.7 104.46 356.05C106.37 354.05 108.96 352.79 111.24 351.2C113.52 349.61 115.66 347.34 115.85 344.56C116.02 342.08 114.57 339.73 112.73 338.05C108.73 334.39 92.94 331.57 87.9 333.62C87.9 333.62 66.72 342.83 65.68 343.57C64.64 344.31 57 347 57.18 356.33C57.36 365.66 62.86 383.91 62.86 383.91Z" fill="#263238"/>
<path d="M66.45 392.5C66.2 386.61 61.1 376 59 365.57C57.93 360.24 57.29 355.5 60.73 351.28C63.64 347.71 67.73 345.28 71.73 343.02C78.12 339.39 84.87 335.82 92.2 335.42C96.98 335.16 102.14 336.5 105.2 340.18C107.71 343.18 108.42 347.3 108.91 351.18C109.738 357.666 110.202 364.192 110.3 370.73C110.48 374.128 110.143 377.533 109.3 380.83C108.871 382.476 108.119 384.021 107.089 385.375C106.06 386.729 104.772 387.866 103.3 388.72C100.7 390.07 97.6 390.19 95 391.54C92.4 392.89 90.48 396.54 92.41 398.7L75.21 403.4L66.45 392.5Z" fill="#A36957"/>
<path d="M116.2 337.47C115.951 337.219 115.654 337.022 115.325 336.891C114.997 336.761 114.645 336.7 114.292 336.712C113.938 336.724 113.591 336.809 113.273 336.962C112.954 337.115 112.671 337.332 112.44 337.6C113.123 336.689 113.416 335.544 113.255 334.417C113.093 333.29 112.491 332.273 111.58 331.59C110.669 330.907 109.524 330.614 108.397 330.775C107.27 330.936 106.253 331.539 105.57 332.45C105.996 331.523 106.083 330.475 105.816 329.49C105.549 328.506 104.946 327.645 104.11 327.06C103.256 326.503 102.29 326.142 101.281 326.002C100.271 325.862 99.243 325.946 98.27 326.25C96.3254 326.87 94.5022 327.821 92.88 329.06C92.8606 328.383 92.6578 327.724 92.2932 327.154C91.9287 326.583 91.416 326.122 90.81 325.82C89.5902 325.226 88.2312 324.977 86.88 325.1C84.2517 325.24 81.7003 326.036 79.4591 327.416C77.2178 328.796 75.3581 330.716 74.05 333C72.7225 332.466 71.2687 332.328 69.8647 332.604C68.4606 332.879 67.1664 333.556 66.1389 334.551C65.1115 335.547 64.3947 336.819 64.0754 338.214C63.7561 339.609 63.848 341.066 64.34 342.41C62.9386 342.7 61.6815 343.468 60.784 344.582C59.8864 345.697 59.4043 347.089 59.42 348.52C57.8272 350.81 57.0393 353.564 57.18 356.35C57.4 365.7 62.86 383.93 62.86 383.93C63.7445 385.775 64.9921 387.423 66.5282 388.776C68.0643 390.128 69.8573 391.156 71.8 391.8C73.7581 392.408 75.843 392.483 77.8399 392.017C79.8367 391.552 81.6732 390.562 83.16 389.15C84.85 387.42 85.85 385.15 87 383.02C88.15 380.89 89.58 378.75 91.74 377.66C93.9 376.57 96.39 377.32 98.74 378C100.85 378.61 100.85 377.24 100.98 375.63L100.8 366.04C100.94 362.42 101.99 358.69 104.48 356.04C106.39 354.04 108.98 352.78 111.26 351.19C113.54 349.6 115.68 347.33 115.87 344.55C115.895 344.146 115.875 343.74 115.81 343.34C116.272 342.789 116.637 342.163 116.89 341.49C117.16 340.822 117.238 340.092 117.116 339.382C116.994 338.672 116.677 338.01 116.2 337.47Z" fill="#263238"/>
<path d="M87.85 353.25C87.8293 353.596 87.7445 353.935 87.6 354.25C87.1434 355.39 86.3591 356.369 85.3464 357.063C84.3336 357.757 83.1378 358.135 81.91 358.15C80.9806 358.158 80.0605 357.964 79.213 357.583C78.3654 357.201 77.6105 356.641 77 355.94H77.41C76.9782 356.576 76.4483 357.14 75.84 357.61C74.9959 358.257 74.0278 358.725 72.9957 358.983C71.9636 359.241 70.8895 359.284 69.84 359.11C68.1399 358.783 66.6118 357.862 65.53 356.51C64.8 355.626 64.2925 354.58 64.05 353.46C63.9823 353.158 63.9421 352.85 63.93 352.54C63.93 352.33 63.93 352.22 63.93 352.22C63.93 352.22 64.01 352.65 64.22 353.41C64.5354 354.467 65.0705 355.445 65.79 356.28C66.8724 357.533 68.3641 358.363 70 358.62C70.976 358.763 71.9707 358.71 72.9256 358.462C73.8805 358.215 74.7763 357.779 75.56 357.18C76.1194 356.743 76.6055 356.22 77 355.63L77.19 355.35L77.41 355.61C77.9694 356.255 78.6582 356.776 79.4317 357.137C80.2052 357.499 81.0462 357.694 81.9 357.71C83.2925 357.731 84.6458 357.248 85.71 356.35C86.4287 355.761 87.012 355.025 87.42 354.19C87.72 353.59 87.81 353.24 87.85 353.25Z" fill="#455A64"/>
<path d="M101.6 346.92C101.759 347.17 101.86 347.453 101.892 347.748C101.925 348.043 101.89 348.341 101.79 348.62C101.639 349.249 101.322 349.826 100.87 350.29C100.315 350.835 99.6245 351.221 98.87 351.41C97.4929 351.699 96.06 351.552 94.77 350.99C94.2264 350.824 93.7227 350.548 93.29 350.18C93.8384 350.275 94.3749 350.429 94.89 350.64C96.1282 351.063 97.4561 351.153 98.74 350.9C99.4267 350.732 100.057 350.387 100.57 349.9C100.989 349.512 101.302 349.023 101.48 348.48C101.594 347.968 101.634 347.443 101.6 346.92Z" fill="#455A64"/>
<path d="M111.4 343.5C111.491 344.074 111.397 344.663 111.13 345.18C110.616 346.505 109.606 347.577 108.313 348.169C107.021 348.761 105.549 348.826 104.21 348.35C103.646 348.211 103.139 347.9 102.76 347.46C102.76 347.38 103.34 347.75 104.31 348C105.568 348.322 106.898 348.217 108.09 347.7C109.265 347.139 110.216 346.198 110.79 345.03C111.24 344.14 111.32 343.49 111.4 343.5Z" fill="#455A64"/>
<path d="M99.5 336.78C98.5884 336.179 97.57 335.758 96.5 335.54C95.2334 335.303 93.9238 335.49 92.7741 336.072C91.6243 336.654 90.6986 337.599 90.14 338.76C89.7796 339.467 89.5653 340.239 89.51 341.03L89 341C88.9896 340.472 88.7933 339.965 88.4457 339.568C88.0982 339.171 87.6216 338.91 87.1 338.83C86.2297 338.686 85.3372 338.875 84.6 339.36C83.9328 339.849 83.2919 340.373 82.68 340.93C82.68 340.93 82.78 340.7 83.06 340.36C83.4513 339.875 83.9092 339.447 84.42 339.09C84.8146 338.796 85.2635 338.584 85.7407 338.466C86.218 338.347 86.714 338.325 87.2 338.4C87.7925 338.516 88.3403 338.796 88.78 339.21C89.0316 339.443 89.2278 339.729 89.3541 340.047C89.4805 340.365 89.5337 340.708 89.51 341.05L89 341C89.0817 339.796 89.5 338.639 90.2072 337.661C90.9144 336.684 91.8822 335.924 93 335.47C94.1574 335.013 95.4249 334.912 96.64 335.18C97.4529 335.349 98.2201 335.69 98.89 336.18C99.32 336.51 99.52 336.76 99.5 336.78Z" fill="#455A64"/>
<path d="M90.11 329.53C90.11 329.61 89.64 329.63 88.94 329.86C88.0354 330.15 87.238 330.704 86.65 331.45C86.0565 332.204 85.7076 333.122 85.65 334.08C85.6754 334.486 85.6754 334.894 85.65 335.3C85.6 335.3 85.35 334.88 85.3 334.08C85.233 333.021 85.5516 331.974 86.1968 331.132C86.8421 330.29 87.7704 329.71 88.81 329.5C89.63 329.35 90.12 329.47 90.11 329.53Z" fill="#455A64"/>
<path d="M70.65 341.21C70.6 341.21 70.76 340.46 71.65 339.76C72.1947 339.358 72.8302 339.097 73.5 339C74.307 338.89 75.1285 338.969 75.9 339.23C77.2535 339.733 78.4671 340.553 79.44 341.62C80.2 342.41 80.6 342.94 80.55 342.99C80.0564 342.676 79.6002 342.307 79.19 341.89C78.1937 340.949 77.0212 340.215 75.74 339.73C75.0435 339.489 74.3029 339.404 73.57 339.48C72.9744 339.548 72.401 339.746 71.89 340.06C71 340.61 70.73 341.26 70.65 341.21Z" fill="#455A64"/>
<path d="M80.77 349.24C80.3605 348.358 80.2722 347.36 80.5206 346.419C80.769 345.479 81.3383 344.655 82.13 344.09C81.7002 344.88 81.3324 345.703 81.03 346.55C80.8817 347.439 80.7949 348.338 80.77 349.24Z" fill="#455A64"/>
<path d="M136.87 387.85L122.37 392.56L125.15 419.22L124.15 421.22L113.38 438.89C113.19 439.2 124.31 441.81 128.5 442.71C133.73 443.83 147.5 442.71 145.5 425.39C144 413.16 136.87 387.85 136.87 387.85Z" fill="#A36957"/>
<path d="M121.24 368.72C120.093 369.288 119.117 370.152 118.414 371.223C117.711 372.293 117.306 373.531 117.24 374.81C117.207 375.156 117.277 375.503 117.44 375.81C117.645 376.067 117.933 376.244 118.255 376.309C118.576 376.375 118.911 376.326 119.2 376.17C119.773 375.846 120.257 375.386 120.61 374.83" fill="#A36957"/>
<path d="M120.64 374.85C120.64 374.85 120.64 375.03 120.42 375.3C120.167 375.705 119.825 376.046 119.42 376.3C119.119 376.481 118.771 376.572 118.42 376.56C118.206 376.563 117.994 376.518 117.801 376.428C117.607 376.338 117.436 376.205 117.3 376.04C117.053 375.662 116.946 375.209 117 374.76C117.016 374.318 117.077 373.88 117.18 373.45C117.535 371.943 118.375 370.594 119.57 369.61C120.027 369.167 120.598 368.859 121.22 368.72C121.22 368.8 120.62 369.11 119.81 369.88C118.767 370.885 118.028 372.164 117.68 373.57C117.59 373.968 117.533 374.373 117.51 374.78C117.457 375.124 117.52 375.476 117.69 375.78C117.89 375.979 118.149 376.107 118.429 376.147C118.708 376.187 118.992 376.135 119.24 376C119.616 375.788 119.954 375.514 120.24 375.19C120.48 375 120.62 374.82 120.64 374.85Z" fill="#7C3B29"/>
<path d="M129.74 368.78C129.74 368.78 122.6 371.63 121.74 373.93C120.88 376.23 119.26 384.81 119.26 384.81L122.43 393.11L136.63 390.27C136.63 390.27 138.81 373.35 138.96 372.85C138.96 372.85 143.96 358.68 143.9 357.38C143.9 355.63 142.51 355.05 140.79 357.1C139.07 359.15 135.25 366.96 135.25 366.96L129.74 368.78Z" fill="#A36957"/>
<path d="M128.41 365.38C126.969 365.185 125.502 365.378 124.16 365.94C122.94 366.64 122.016 367.759 121.56 369.09C121.12 370.412 120.838 371.781 120.72 373.17C120.59 374.17 120.55 375.46 121.39 376.09C121.599 376.238 121.842 376.333 122.097 376.364C122.352 376.396 122.611 376.363 122.85 376.27C123.087 376.167 123.293 376.005 123.45 375.801C123.608 375.596 123.711 375.355 123.75 375.1" fill="#A36957"/>
<path d="M123.75 375.1C123.75 375.1 123.82 375.4 123.54 375.84C123.368 376.107 123.116 376.314 122.82 376.43C122.419 376.59 121.971 376.59 121.57 376.43C121.33 376.322 121.116 376.163 120.944 375.964C120.771 375.766 120.644 375.532 120.57 375.28C120.417 374.734 120.37 374.164 120.43 373.6C120.517 372.362 120.711 371.134 121.01 369.93C121.316 368.687 121.948 367.548 122.84 366.63C123.596 365.897 124.567 365.427 125.61 365.29C126.274 365.209 126.946 365.209 127.61 365.29C127.863 365.286 128.114 365.33 128.35 365.42C128.35 365.53 127.27 365.42 125.62 365.68C124.674 365.846 123.803 366.304 123.13 366.99C122.322 367.865 121.751 368.932 121.47 370.09C121.177 371.263 120.969 372.456 120.85 373.66C120.784 374.164 120.811 374.676 120.93 375.17C120.979 375.37 121.07 375.558 121.198 375.72C121.325 375.882 121.487 376.015 121.67 376.11C121.944 376.247 122.257 376.288 122.556 376.224C122.856 376.161 123.126 375.997 123.32 375.76C123.482 375.553 123.626 375.332 123.75 375.1Z" fill="#7C3B29"/>
<path d="M135 366.76C134.171 365.752 133.071 365.003 131.83 364.6C131.134 364.492 130.422 364.549 129.752 364.766C129.081 364.983 128.471 365.354 127.97 365.85C126.978 366.85 126.181 368.027 125.62 369.32C125.11 370.37 124.62 371.44 124.19 372.53C123.928 373.104 123.753 373.714 123.67 374.34C123.628 374.653 123.65 374.971 123.734 375.275C123.818 375.579 123.963 375.863 124.16 376.11C124.497 376.448 124.935 376.667 125.407 376.736C125.879 376.804 126.361 376.718 126.78 376.49C127.615 376.014 128.237 375.238 128.52 374.32" fill="#A36957"/>
<path d="M128.54 374.32C128.499 374.658 128.383 374.982 128.2 375.27C127.992 375.699 127.685 376.073 127.305 376.36C126.924 376.647 126.48 376.839 126.01 376.92C125.671 376.973 125.324 376.949 124.995 376.85C124.667 376.752 124.364 376.581 124.11 376.35C123.841 376.059 123.644 375.71 123.533 375.33C123.422 374.95 123.4 374.549 123.47 374.16C123.609 373.36 123.865 372.585 124.23 371.86C124.57 371.1 124.92 370.32 125.23 369.51C125.851 367.942 126.831 366.541 128.09 365.42C128.632 364.952 129.278 364.622 129.974 364.456C130.67 364.291 131.396 364.296 132.09 364.47C132.97 364.779 133.76 365.301 134.39 365.99C134.84 366.46 135.06 366.74 135.03 366.76C134.75 366.58 134.488 366.372 134.25 366.14C133.602 365.542 132.83 365.095 131.99 364.83C131.361 364.707 130.713 364.733 130.096 364.907C129.479 365.081 128.912 365.397 128.44 365.83C127.26 366.926 126.341 368.272 125.75 369.77L124.75 372.08C124.398 372.768 124.143 373.502 123.99 374.26C123.929 374.577 123.94 374.905 124.021 375.218C124.102 375.531 124.252 375.822 124.46 376.07C124.667 376.264 124.913 376.411 125.183 376.499C125.453 376.587 125.738 376.615 126.02 376.58C126.444 376.514 126.849 376.355 127.205 376.115C127.561 375.875 127.86 375.559 128.08 375.19C128.38 374.64 128.5 374.3 128.54 374.32Z" fill="#7C3B29"/>
<path d="M130 379.72L129.07 374.85C127.273 374.563 125.576 373.834 124.13 372.73C123.64 371.44 124.32 370.63 126.13 370.13C127.94 369.63 133.59 370.45 134.21 370.79C136.38 371.96 136.64 375 136.95 377.45" fill="#A36957"/>
<path d="M136.93 377.45C136.809 377.076 136.725 376.69 136.68 376.3C136.532 375.256 136.277 374.231 135.92 373.24C135.677 372.575 135.287 371.973 134.78 371.48C134.497 371.212 134.154 371.017 133.78 370.91C133.39 370.81 132.97 370.73 132.53 370.66C130.642 370.332 128.725 370.201 126.81 370.27C126.096 370.343 125.41 370.586 124.81 370.98C124.544 371.151 124.352 371.414 124.27 371.72C124.22 372.03 124.254 372.348 124.37 372.64L124.29 372.53C125.701 373.616 127.355 374.344 129.11 374.65H129.25V374.78C129.49 376.2 129.69 377.4 129.85 378.36C129.949 378.796 129.996 379.242 129.99 379.69C129.831 379.272 129.713 378.84 129.64 378.4C129.43 377.45 129.17 376.26 128.87 374.85L129.03 375.01C127.189 374.74 125.445 374.011 123.96 372.89V372.82C123.805 372.44 123.76 372.024 123.83 371.62C123.947 371.21 124.205 370.856 124.56 370.62C125.243 370.153 126.035 369.87 126.86 369.8C128.817 369.729 130.776 369.877 132.7 370.24C133.138 370.308 133.572 370.402 134 370.52C134.423 370.658 134.807 370.894 135.12 371.21C135.66 371.758 136.07 372.421 136.32 373.15C136.651 374.178 136.856 375.242 136.93 376.32C136.976 376.695 136.976 377.075 136.93 377.45Z" fill="#7C3B29"/>
<path d="M128.53 378C128.092 378.089 127.647 378.142 127.2 378.16C126.155 378.302 125.159 378.687 124.29 379.284C123.422 379.882 122.706 380.675 122.2 381.6C121.8 382.31 121.65 382.81 121.57 382.79C121.49 382.77 121.57 382.24 121.87 381.44C122.316 380.396 123.048 379.5 123.983 378.855C124.918 378.211 126.016 377.845 127.15 377.8C128 377.79 128.55 378 128.53 378Z" fill="#7C3B29"/>
<path d="M133.87 423.64C132.329 423.119 130.823 422.501 129.36 421.79C127.83 421.239 126.337 420.591 124.89 419.85C126.509 420.107 128.083 420.599 129.56 421.31C131.105 421.866 132.558 422.652 133.87 423.64Z" fill="#7C3B29"/>
<path d="M85 395.39C85.92 395.08 100.29 397.67 104.47 399.53C106.83 400.58 126.84 416.81 126.84 416.81L112.14 440.92L102.5 437.41L102.39 479.58L42.39 479.42L43.69 412.07C43.69 412.07 48 394.42 55.33 392.28C62.66 390.14 85 395.39 85 395.39Z" fill="#115E59"/>
<path d="M101.18 438C101.014 437.999 100.849 437.975 100.69 437.93C100.221 437.847 99.7565 437.737 99.3 437.6C97.6152 437.091 96.0147 436.336 94.55 435.36C92.3601 433.933 90.4739 432.088 89 429.93C87.1439 427.289 86.0255 424.202 85.7601 420.985C85.4947 417.768 86.0918 414.539 87.49 411.63C88.5818 409.251 90.1313 407.11 92.05 405.33C93.328 404.115 94.785 403.103 96.37 402.33C96.7937 402.114 97.2314 401.927 97.68 401.77C97.8299 401.701 97.9878 401.65 98.15 401.62C96.0058 402.644 94.0326 403.993 92.3 405.62C90.4826 407.396 89.0229 409.504 88 411.83C86.6607 414.672 86.0915 417.815 86.3495 420.946C86.6074 424.077 87.6836 427.086 89.47 429.67C90.8891 431.803 92.7014 433.645 94.81 435.1C96.7717 436.388 98.9202 437.366 101.18 438Z" fill="#263238"/>
<path d="M91 476.57C90.86 476.57 91.22 468.15 91.8 457.78C92.38 447.41 93 439 93.09 439C93.18 439 92.88 447.42 92.29 457.8C91.7 468.18 91.12 476.58 91 476.57Z" fill="#263238"/>
<path d="M75.76 451.59C75.5101 451.914 75.225 452.209 74.91 452.47C74.35 453.02 73.51 453.78 72.46 454.7C70.35 456.55 67.36 459.01 63.94 461.57C60.52 464.13 57.29 466.29 54.94 467.79C53.76 468.54 52.79 469.12 52.11 469.51C51.7718 469.736 51.4096 469.924 51.03 470.07C51.3348 469.79 51.6702 469.545 52.03 469.34L54.77 467.48C57.09 465.91 60.26 463.71 63.67 461.16C67.08 458.61 70.1 456.16 72.27 454.42L74.83 452.32C75.1183 452.05 75.4295 451.806 75.76 451.59Z" fill="#263238"/>
<path d="M52.08 411C51.95 410.91 53.13 409.19 54.31 406.92C55.49 404.65 56.26 402.72 56.4 402.77C56.1319 404.321 55.5793 405.81 54.77 407.16C54.1122 408.592 53.2008 409.893 52.08 411Z" fill="#FAFAFA"/>
<path d="M56.21 433.44C55.0348 432.368 54.0418 431.111 53.27 429.72C52.3511 428.419 51.6581 426.972 51.22 425.44C52.1189 426.729 52.9501 428.064 53.71 429.44C54.6236 430.721 55.4585 432.057 56.21 433.44Z" fill="#FAFAFA"/>
<path d="M72.23 413.25C71.261 414.717 70.1525 416.086 68.92 417.34C67.8118 418.701 66.5762 419.954 65.23 421.08C66.1895 419.609 67.2951 418.239 68.53 416.99C69.637 415.624 70.8764 414.372 72.23 413.25Z" fill="#FAFAFA"/>
<path d="M77.16 439.61C77.02 439.55 78.16 437.09 79.28 433.98C80.4 430.87 81.19 428.28 81.34 428.31C80.6553 432.302 79.2381 436.133 77.16 439.61Z" fill="#FAFAFA"/>
<path d="M66.84 451.37C66.5045 449.958 66.3466 448.511 66.37 447.06C66.2139 445.616 66.234 444.159 66.43 442.72C66.7513 444.134 66.9057 445.58 66.89 447.03C67.0401 448.474 67.0234 449.93 66.84 451.37Z" fill="#FAFAFA"/>
<path d="M57.15 464.39C55.861 463.15 54.6924 461.791 53.66 460.33C52.4979 458.966 51.4667 457.497 50.58 455.94C51.8764 457.173 53.0456 458.533 54.07 460C55.2417 461.356 56.2736 462.827 57.15 464.39Z" fill="#FAFAFA"/>
<path d="M70.23 472.78C69.6783 470.558 69.4692 468.265 69.61 465.98C70.1617 468.202 70.3708 470.495 70.23 472.78Z" fill="#FAFAFA"/>
<path d="M84.87 466.56C83.8058 465.449 82.8669 464.225 82.07 462.91C81.1349 461.67 80.3432 460.328 79.71 458.91C80.7742 460.02 81.7132 461.244 82.51 462.56C83.4451 463.8 84.2368 465.142 84.87 466.56Z" fill="#FAFAFA"/>
<path d="M90 446.63C89.2726 446.782 88.5198 446.765 87.8 446.58C87.0588 446.556 86.3332 446.361 85.68 446.01C86.4075 445.857 87.1603 445.875 87.88 446.06C88.6212 446.084 89.3469 446.279 90 446.63Z" fill="#FAFAFA"/>
<path d="M100.23 457.77C99.2219 456.576 98.3529 455.271 97.64 453.88C96.7746 452.582 96.0536 451.194 95.49 449.74C96.5025 450.927 97.3718 452.229 98.08 453.62C98.9468 454.92 99.6678 456.312 100.23 457.77Z" fill="#FAFAFA"/>
<path d="M100 467.2C99.7608 468.416 99.3571 469.593 98.8 470.7C98.4013 471.875 97.8355 472.986 97.12 474C97.3576 472.784 97.7614 471.606 98.32 470.5C98.7208 469.326 99.2865 468.215 100 467.2Z" fill="#FAFAFA"/>
<path d="M93.67 424.19C92.9527 422.964 92.4997 421.601 92.34 420.19C92.0091 418.803 91.9683 417.363 92.22 415.96C92.38 415.96 92.45 417.84 92.85 420.1C93.25 422.36 93.81 424.14 93.67 424.19Z" fill="#FAFAFA"/>
<path d="M99.42 409.34C100.221 408.704 101.124 408.207 102.09 407.87C102.989 407.374 103.967 407.036 104.98 406.87C104.176 407.507 103.27 408.004 102.3 408.34C101.402 408.831 100.429 409.169 99.42 409.34Z" fill="#FAFAFA"/>
<path d="M106.67 422.53C105.86 421.534 105.188 420.434 104.67 419.26C103.999 418.169 103.481 416.991 103.13 415.76C103.943 416.75 104.616 417.847 105.13 419.02C105.794 420.118 106.312 421.298 106.67 422.53Z" fill="#FAFAFA"/>
<path d="M116.49 418.24C115.591 417.293 114.827 416.226 114.22 415.07C113.462 414.01 112.849 412.853 112.4 411.63C113.291 412.581 114.051 413.647 114.66 414.8C115.419 415.861 116.034 417.018 116.49 418.24Z" fill="#FAFAFA"/>
<path d="M113.46 430.26C112.202 430.873 110.876 431.337 109.51 431.64C108.19 432.094 106.82 432.389 105.43 432.52C106.68 431.895 108.004 431.431 109.37 431.14C110.691 430.675 112.065 430.379 113.46 430.26Z" fill="#FAFAFA"/>
<path d="M82.55 404C81.1666 403.624 79.8783 402.959 78.77 402.05C77.567 401.276 76.5439 400.253 75.77 399.05C75.88 398.94 77.22 400.27 79.09 401.62C80.96 402.97 82.61 403.88 82.55 404Z" fill="#FAFAFA"/>
<path d="M60.93 396.37C59.9304 396.596 58.886 396.519 57.93 396.15C56.9402 395.957 56.0291 395.477 55.31 394.77C56.2461 395.01 57.1676 395.304 58.07 395.65C59.0373 395.83 59.9925 396.071 60.93 396.37Z" fill="#FAFAFA"/>
<path d="M478.47 479.42C478.47 479.56 375.41 479.68 248.3 479.68C121.19 479.68 18.1 479.56 18.1 479.42C18.1 479.28 121.1 479.16 248.3 479.16C375.5 479.16 478.47 479.27 478.47 479.42Z" fill="#263238"/>
</svg>
